<svg width="409" height="336" viewBox="0 0 409 336" fill="none" xmlns="http://www.w3.org/2000/svg">
<path opacity="0.7" d="M55.5668 112.284C55.5668 112.284 32.7609 160.668 64.8102 209.388C96.8594 258.108 162.872 283.846 215.707 305.854C268.541 327.862 323.405 317.143 349.474 281.097C375.544 245.051 339.789 219.32 339.74 167.919C339.691 116.518 349.106 102.91 315.2 59.4851C281.294 16.0605 198.177 6.44419 135.322 38.6532C72.4667 70.8621 55.5668 112.284 55.5668 112.284Z" fill="white"/>
<path d="M158.692 16.4033C130.88 20.1597 104.32 28.4388 81.7264 42.7457C48.8592 63.5777 30.6341 94.6711 28.7282 128.506C27.4766 150.844 33.9634 172.623 41.8162 193.831C51.8939 221.088 58.4052 252.195 79.4687 275.52C112.271 311.808 175.657 327.116 228.672 320.624C262.922 316.424 299.11 300.464 309.654 271.568C313.556 260.877 315.454 249.392 322.12 239.507C330.112 227.667 344.599 220.752 355.601 211.109C369.196 199.201 374.669 184.363 378.055 168.672C385.466 134.319 375.347 97.9303 350.914 69.4308C325.417 39.7015 287.592 23.7348 244.647 17.4717C239.936 16.7997 235.2 16.2017 230.447 15.7111C206.856 13.2717 182.332 13.1911 158.692 16.4033Z" fill="#8173FF"/>
<path opacity="0.7" d="M158.692 16.4033C130.88 20.1597 104.32 28.4388 81.7264 42.7457C48.8592 63.5777 30.6341 94.6711 28.7282 128.506C27.4766 150.844 33.9634 172.623 41.8162 193.831C51.8939 221.088 58.4052 252.195 79.4687 275.52C112.271 311.808 175.657 327.116 228.672 320.624C262.922 316.424 299.11 300.464 309.654 271.568C313.556 260.877 315.454 249.392 322.12 239.507C330.112 227.667 344.599 220.752 355.601 211.109C369.196 199.201 374.669 184.363 378.055 168.672C385.466 134.319 375.347 97.9303 350.914 69.4308C325.417 39.7015 287.592 23.7348 244.647 17.4717C239.936 16.7997 235.2 16.2017 230.447 15.7111C206.856 13.2717 182.332 13.1911 158.692 16.4033Z" fill="white"/>
<path opacity="0.2" d="M164.647 257.148L233.13 246.658C233.13 246.658 248.623 286.817 251.748 292.011L250.112 295.163L251.142 300.438L183.085 313.153L177.629 309.618L164.647 257.148Z" fill="black" fill-opacity="0.7"/>
<path d="M228.155 242.354L161.952 255.23L177.626 309.617L243.829 296.741L228.155 242.354Z" fill="#8173FF"/>
<mask id="mask0_223_786" style="mask-type:luminance" maskUnits="userSpaceOnUse" x="161" y="242" width="83" height="68">
<path d="M228.155 242.353L161.952 255.229L177.626 309.616L243.829 296.74L228.155 242.353Z" fill="white"/>
</mask>
<g mask="url(#mask0_223_786)">
<path opacity="0.2" d="M232.386 257.026L243.371 295.135L180.238 307.413C172.631 291.775 166.815 272.086 166.815 272.086L232.386 257.026Z" fill="black" fill-opacity="0.7"/>
</g>
<path d="M228.155 242.354L161.952 255.23L177.626 309.617L243.829 296.741L228.155 242.354Z" stroke="#263238" stroke-linecap="round" stroke-linejoin="round"/>
<path d="M245.899 293.274C229.351 296.493 205.915 299.517 191.78 301.224C184.418 302.111 179.51 302.635 179.51 302.635C173.244 293.227 161.939 255.232 161.939 255.232L228.14 242.356C228.271 242.82 228.386 243.284 228.508 243.741C236.402 273.127 245.899 293.274 245.899 293.274Z" fill="white"/>
<mask id="mask1_223_786" style="mask-type:luminance" maskUnits="userSpaceOnUse" x="161" y="242" width="85" height="61">
<path d="M245.899 293.274C229.351 296.493 205.915 299.517 191.78 301.224C184.418 302.111 179.51 302.635 179.51 302.635C173.244 293.227 161.939 255.232 161.939 255.232L228.14 242.356C228.271 242.82 228.386 243.284 228.508 243.741C236.402 273.127 245.899 293.274 245.899 293.274Z" fill="white"/>
</mask>
<g mask="url(#mask1_223_786)">
<path opacity="0.4" d="M245.899 293.274C229.351 296.493 205.915 299.517 191.78 301.224C181.146 295.425 178.602 289.74 178.733 284.317C178.872 277.879 213.015 284.169 220.148 277.791C225.236 273.242 225.056 253.935 228.525 243.741C236.402 273.128 245.899 293.274 245.899 293.274Z" fill="#8173FF"/>
</g>
<path d="M245.899 293.274C229.351 296.493 205.915 299.517 191.78 301.224C184.418 302.111 179.51 302.635 179.51 302.635C173.244 293.227 161.939 255.232 161.939 255.232L228.14 242.356C228.271 242.82 228.386 243.284 228.508 243.741C236.402 273.127 245.899 293.274 245.899 293.274Z" stroke="#263238" stroke-linecap="round" stroke-linejoin="round"/>
<path d="M173.13 263.458C174.028 262.598 175.105 261.877 176.312 261.327L177.293 263.397L180.721 262.376C181.866 262.033 183.175 261.59 183.576 260.655C184.205 261.885 186.381 261.677 187.927 261.274C198.632 258.443 209.565 256.236 220.647 254.668" stroke="#263238" stroke-linecap="round" stroke-linejoin="round"/>
<path d="M174.79 270.984C174.079 270.682 174.668 269.64 175.469 269.681C176.271 269.721 176.786 270.447 176.852 271.105C177.206 271.073 177.539 270.95 177.804 270.754C178.068 270.557 178.25 270.297 178.324 270.01L179.461 270.682C179.366 270.566 179.302 270.436 179.271 270.298C179.24 270.161 179.243 270.02 179.281 269.884C179.319 269.748 179.391 269.62 179.491 269.508C179.592 269.395 179.72 269.301 179.866 269.231C180.013 269.16 180.176 269.115 180.344 269.099C180.513 269.082 180.684 269.094 180.847 269.133C181.01 269.173 181.161 269.24 181.291 269.329C181.421 269.419 181.528 269.529 181.604 269.654C181.522 268.888 181.882 267.786 182.79 267.96C183.073 268.056 183.332 268.195 183.551 268.37C183.828 268.509 184.141 268.592 184.465 268.612C184.788 268.633 185.113 268.59 185.413 268.488C185.713 268.386 185.979 268.227 186.19 268.024C186.401 267.822 186.55 267.581 186.627 267.322C187.518 268.155 189.081 268.041 190.447 267.853L202.357 266.186C202.471 265.568 202.848 264.775 203.6 264.842C204.034 264.896 204.32 265.239 204.696 265.427C205.276 265.627 205.925 265.646 206.52 265.481C211.886 264.526 217.151 263.225 222.267 261.59" stroke="#263238" stroke-linecap="round" stroke-linejoin="round"/>
<path d="M178.897 279.553C180.488 279.667 182.09 279.486 183.584 279.022C183.319 278.563 183.252 278.044 183.394 277.549C183.535 277.055 183.876 276.615 184.361 276.3L185.801 277.059C191.598 276.946 197.361 276.292 202.979 275.111C205.49 274.587 207.977 273.948 210.455 273.31L224.574 269.694" stroke="#263238" stroke-linecap="round" stroke-linejoin="round"/>
<path opacity="0.2" d="M288.296 41.3345L286.979 41.4017C286.372 41.4595 285.761 41.3366 285.255 41.0555C284.749 40.7744 284.383 40.3536 284.222 39.8695C282.21 33.8551 274.848 30.4749 266.349 30.9117C258.676 31.3015 250.586 35.2797 245.899 40.7767C245.323 41.4973 244.56 42.1042 243.665 42.5538C242.77 43.0034 241.764 43.2847 240.721 43.3773L234.177 43.7133C233.283 43.7812 232.387 43.6114 231.62 43.2291C230.852 42.8468 230.255 42.2722 229.915 41.5898C227.273 36.4625 220.574 33.2436 212.893 33.6333C204.377 34.0634 195.576 38.2634 191.199 44.6071C190.853 45.1177 190.363 45.5522 189.769 45.8739C189.175 46.1956 188.496 46.3949 187.788 46.4551L186.471 46.5223C186.162 46.5502 185.873 46.6596 185.646 46.834C185.418 47.0085 185.266 47.2386 185.212 47.49L184.696 50.178C184.665 50.2681 184.656 50.3627 184.672 50.4556C184.688 50.5485 184.727 50.6377 184.787 50.7175C184.847 50.7973 184.927 50.8658 185.021 50.9187C185.115 50.9716 185.222 51.0077 185.334 51.0247L186.921 51.4212C187.537 51.5716 188.069 51.8933 188.427 52.331C188.786 52.7688 188.947 53.2953 188.884 53.8202C188.328 62.4285 195.723 68.7521 206.251 68.2212C216.402 67.7037 226.062 60.9703 229.22 52.6711C229.487 51.9992 229.952 51.3922 230.575 50.9043C231.197 50.4164 231.957 50.063 232.786 49.8756C235.037 49.3885 237.379 49.2517 239.69 49.4724C240.427 49.5429 241.104 49.8385 241.588 50.3004C242.071 50.7623 242.325 51.3567 242.3 51.9655C242.3 60.1303 249.523 66.017 259.69 65.4996C270.234 64.9754 280.23 57.7917 283.028 49.0557C283.229 48.451 283.6 47.8931 284.109 47.4265C284.619 46.9599 285.254 46.5974 285.965 46.3677L287.74 45.81C287.988 45.7405 288.209 45.618 288.38 45.455C288.551 45.2919 288.666 45.0944 288.713 44.8826L289.237 42.1946C289.279 42.0833 289.286 41.9648 289.255 41.8508C289.225 41.7367 289.16 41.6311 289.065 41.5443C288.97 41.4575 288.849 41.3925 288.714 41.3557C288.579 41.3189 288.435 41.3116 288.296 41.3345ZM206.7 65.9498C196.884 66.4471 190.25 60.1169 191.837 51.8378C193.424 43.5588 202.684 36.3818 212.475 35.9181C222.267 35.4545 228.925 41.7511 227.33 50.0301C225.735 58.3092 216.492 65.4525 206.7 65.9498ZM230.251 48.2829C230.289 47.8349 230.305 47.3713 230.3 46.8919C230.31 46.7004 230.403 46.5181 230.562 46.3777C230.72 46.2373 230.935 46.148 231.167 46.1258L242.881 45.5345C242.982 45.5265 243.085 45.5405 243.178 45.5749C243.271 45.6093 243.352 45.6631 243.412 45.7309C243.472 45.7986 243.51 45.8781 243.521 45.9615C243.533 46.0449 243.518 46.1293 243.478 46.2065C243.298 46.6701 243.134 47.1338 242.987 47.6042C237.948 46.4013 232.917 47.4833 230.251 48.2829ZM260.124 63.2282C250.308 63.7255 243.674 57.3953 245.269 49.1162C246.864 40.8372 256.108 33.6602 265.899 33.1965C275.691 32.7329 282.349 39.0295 280.762 47.3085C279.175 55.5876 269.94 62.7309 260.124 63.2282Z" fill="black" fill-opacity="0.7"/>
<path d="M279.895 43.0078L204.835 51.1928C203.063 51.3861 201.36 51.8825 199.835 52.6499C198.311 53.4173 196.999 54.4387 195.985 55.6481L184.999 68.779C184.898 68.9011 184.832 69.0402 184.806 69.1861C184.78 69.332 184.794 69.4808 184.847 69.6216C184.901 69.7623 184.992 69.8914 185.115 69.9991C185.237 70.1069 185.388 70.1906 185.555 70.244C186.291 70.4764 187.101 70.4981 187.853 70.3054C188.606 70.1127 189.258 69.7169 189.702 69.1822L199.862 57.0862C200.466 56.3621 201.248 55.7491 202.156 55.2864C203.064 54.8236 204.08 54.5212 205.138 54.3982L280.165 45.6622L279.895 43.0078Z" fill="#263238"/>
<path d="M178.635 48.1952L254.332 47.1671C256.123 47.1464 257.898 47.4347 259.544 48.0136C261.19 48.5924 262.669 49.4487 263.887 50.5271L277.122 62.1795C277.244 62.2874 277.335 62.4166 277.387 62.5575C277.44 62.6983 277.453 62.847 277.425 62.9926C277.397 63.1381 277.33 63.2766 277.228 63.3976C277.126 63.5187 276.992 63.6192 276.836 63.6915C276.151 64.0122 275.354 64.1336 274.575 64.0361C273.795 63.9385 273.079 63.6277 272.541 63.1539L260.312 52.4019C259.58 51.7576 258.693 51.2456 257.707 50.8985C256.722 50.5514 255.659 50.3768 254.586 50.3859L178.806 50.8563L178.635 48.1952Z" fill="#263238"/>
<path d="M224.516 52.1539C225.449 52.295 225.408 57.5299 223.298 59.2972C221.187 61.0646 219.028 56.7638 219.576 55.2182C220.124 53.6726 221.596 51.6969 224.516 52.1539Z" fill="#8173FF" stroke="#263238" stroke-linecap="round" stroke-linejoin="round"/>
<path d="M237.67 51.4814C236.77 51.7234 237.596 56.8574 239.952 58.4501C242.308 60.0427 243.813 55.5 243.036 54.0283C242.259 52.5566 240.492 50.7355 237.67 51.4814Z" fill="#8173FF" stroke="#263238" stroke-linecap="round" stroke-linejoin="round"/>
<path opacity="0.5" d="M190.774 39.9031C194.733 37.121 203.118 32.3834 212.296 36.8925C221.473 41.4016 224.639 46.3005 222.758 52.9331C220.876 59.5658 215.093 68.4362 201.49 66.8906C187.886 65.345 178.479 48.545 190.774 39.9031Z" fill="#8173FF"/>
<path opacity="0.5" d="M244.296 37.7589C248.255 34.9769 256.631 30.2325 265.809 34.7417C274.987 39.2508 278.161 44.1497 276.271 50.7823C274.382 57.4149 268.615 66.2853 255.003 64.7397C241.392 63.1941 231.993 46.3672 244.296 37.7589Z" fill="#8173FF"/>
<path d="M281.457 42.0669L280.14 42.1341C279.488 42.1695 278.837 42.0478 278.268 41.7841C277.698 41.5203 277.235 41.1258 276.934 40.6489C273.286 34.816 264.934 31.5501 256.418 31.9801C252.657 32.1816 249.022 33.1705 245.857 34.8525C242.693 36.5346 240.105 38.8539 238.341 41.5897C237.917 42.301 237.275 42.909 236.477 43.3534C235.679 43.7978 234.754 44.0632 233.793 44.1232L227.249 44.4525C226.284 44.4941 225.322 44.3267 224.461 43.967C223.599 43.6073 222.868 43.0679 222.341 42.4029C220.178 39.8668 217.261 37.8278 213.867 36.4798C210.474 35.1318 206.717 34.5197 202.954 34.7017C194.439 35.1385 186.643 39.2243 183.903 45.3865C183.675 45.8897 183.273 46.3273 182.747 46.646C182.222 46.9646 181.594 47.1505 180.942 47.1808L179.625 47.248C179.337 47.2635 179.069 47.372 178.879 47.5496C178.689 47.7272 178.592 47.9595 178.61 48.1955L178.807 50.823C178.823 51.0195 178.918 51.2061 179.076 51.3542C179.234 51.5022 179.447 51.6037 179.682 51.6429L181.4 52.0192C182.066 52.1577 182.67 52.4505 183.14 52.8626C183.609 53.2748 183.925 53.789 184.05 54.3443C184.83 58.3967 187.388 62.0745 191.242 64.6839C195.096 67.2934 199.979 68.6541 204.97 68.5095C209.961 68.3648 214.715 66.7247 218.335 63.8986C221.956 61.0726 224.192 57.2558 224.623 53.1683C224.712 52.5337 225.035 51.9366 225.548 51.4564C226.061 50.9762 226.74 50.6358 227.494 50.4803C229.739 49.9933 232.075 49.8566 234.381 50.0771C235.162 50.1594 235.893 50.435 236.477 50.8672C237.062 51.2994 237.472 51.8677 237.653 52.4963C238.671 56.5293 241.457 60.1147 245.481 62.5712C249.505 65.0277 254.487 66.1842 259.481 65.821C264.475 65.4578 269.133 63.6001 272.569 60.6009C276.005 57.6017 277.981 53.6701 278.12 49.5529C278.157 48.9914 278.389 48.4503 278.789 47.9941C279.19 47.5378 279.741 47.1856 280.378 46.9792L282.014 46.4281C282.24 46.3653 282.436 46.2433 282.57 46.0808C282.705 45.9182 282.771 45.7239 282.758 45.5277L282.554 42.9001C282.539 42.6714 282.416 42.4564 282.211 42.3008C282.007 42.1452 281.736 42.0613 281.457 42.0669ZM205.318 66.0774C201.806 66.2571 198.308 65.5767 195.267 64.1224C192.225 62.6681 189.778 60.5053 188.233 57.9076C186.689 55.31 186.118 52.3945 186.591 49.5299C187.065 46.6654 188.563 43.9807 190.894 41.8156C193.226 39.6506 196.287 38.1025 199.691 37.3674C203.094 36.6322 206.686 36.7431 210.013 37.6859C213.339 38.6287 216.25 40.361 218.378 42.6637C220.505 44.9663 221.754 47.7358 221.964 50.6214C222.24 54.4821 220.643 58.2753 217.524 61.1716C214.404 64.068 210.016 65.8318 205.318 66.0774ZM224.459 48.9011C224.369 48.4441 224.263 47.9939 224.132 47.5571C224.107 47.4706 224.105 47.3806 224.126 47.2935C224.148 47.2064 224.193 47.1243 224.258 47.053C224.323 46.9818 224.406 46.9232 224.502 46.8814C224.597 46.8396 224.703 46.8156 224.811 46.8112L236.525 46.2131C236.635 46.2023 236.747 46.2122 236.853 46.2422C236.958 46.2721 237.053 46.3213 237.132 46.386C237.211 46.4507 237.271 46.5292 237.307 46.6157C237.344 46.7021 237.356 46.7942 237.343 46.8851C237.285 47.3286 237.244 47.7856 237.22 48.2291C232.992 47.3639 228.542 47.5987 224.484 48.9011H224.459ZM258.766 63.3558C255.254 63.5355 251.756 62.8551 248.715 61.4008C245.674 59.9465 243.226 57.7836 241.682 55.186C240.137 52.5884 239.566 49.6729 240.039 46.8083C240.513 43.9438 242.011 41.2591 244.342 39.094C246.674 36.929 249.735 35.3809 253.139 34.6458C256.542 33.9106 260.134 34.0215 263.461 34.9643C266.787 35.9071 269.698 37.6394 271.826 39.9421C273.954 42.2447 275.202 45.0142 275.412 47.8998C275.69 51.7576 274.098 55.5489 270.983 58.4451C267.869 61.3413 263.485 63.1068 258.791 63.3558H258.766Z" fill="#757575" stroke="#263238" stroke-linecap="round" stroke-linejoin="round"/>
<path opacity="0.4" d="M192.23 60.9102C192.23 60.9102 185.686 53.7938 190.299 45.5282C194.463 38.0958 204.205 37.2491 208.827 38.8082L198.774 53.2696C199.699 49.7373 201.084 46.297 202.905 43.0082C202.905 43.0082 194.021 50.4002 192.23 60.9102Z" fill="white"/>
<path opacity="0.4" d="M245.547 57.7922C245.547 57.7922 239.003 50.6824 243.617 42.4168C247.78 34.9778 257.523 34.1311 262.136 35.6968L252.05 50.1314C252.811 44.9503 256.222 39.8834 256.222 39.8834C256.222 39.8834 247.33 47.2687 245.547 57.7922Z" fill="white"/>
<path opacity="0.2" d="M53.6608 183.348L56.033 192.104L58.7406 182.192L51.624 83.1865H46.7733L53.6608 183.348Z" fill="black" fill-opacity="0.7"/>
<path d="M49.3254 81.9839L56.033 181.574L53.579 189.766L50.0289 181.85L43.3049 82.2527C43.2894 82.0869 43.3142 81.9202 43.3781 81.7623C43.442 81.6045 43.5435 81.4587 43.6769 81.3336C43.8102 81.2084 43.9726 81.1064 44.1545 81.0334C44.3364 80.9604 44.5343 80.918 44.7364 80.9087L47.7221 80.7743C47.9246 80.7653 48.1273 80.7896 48.3182 80.8458C48.5091 80.9021 48.6844 80.9891 48.8338 81.1018C48.9831 81.2145 49.1036 81.3506 49.188 81.5021C49.2724 81.6535 49.3192 81.8174 49.3254 81.9839Z" fill="#8173FF"/>
<mask id="mask2_223_786" style="mask-type:luminance" maskUnits="userSpaceOnUse" x="43" y="80" width="14" height="110">
<path d="M49.3254 81.9839L56.033 181.574L53.579 189.766L50.0289 181.85L43.3049 82.2527C43.2894 82.0869 43.3142 81.9202 43.3781 81.7623C43.442 81.6045 43.5435 81.4587 43.6769 81.3336C43.8102 81.2084 43.9726 81.1064 44.1545 81.0334C44.3364 80.9604 44.5343 80.918 44.7364 80.9087L47.7221 80.7743C47.9246 80.7653 48.1273 80.7896 48.3182 80.8458C48.5091 80.9021 48.6844 80.9891 48.8338 81.1018C48.9831 81.2145 49.1036 81.3506 49.188 81.5021C49.2724 81.6535 49.3192 81.8174 49.3254 81.9839Z" fill="white"/>
</mask>
<g mask="url(#mask2_223_786)">
<path opacity="0.2" d="M53.5626 189.766L50.0125 181.85L43.3049 82.2532C43.2894 82.0874 43.3142 81.9206 43.3781 81.7628C43.442 81.605 43.5435 81.4592 43.6769 81.334C43.8102 81.2089 43.9726 81.1068 44.1545 81.0339C44.3364 80.9609 44.5343 80.9185 44.7364 80.9092H45.1536L51.9103 181.232L53.5626 189.766Z" fill="black" fill-opacity="0.7"/>
</g>
<path d="M49.3254 81.9839L56.033 181.574L53.579 189.766L50.0289 181.85L43.3049 82.2527C43.2894 82.0869 43.3142 81.9202 43.3781 81.7623C43.442 81.6045 43.5435 81.4587 43.6769 81.3336C43.8102 81.2084 43.9726 81.1064 44.1545 81.0334C44.3364 80.9604 44.5343 80.918 44.7364 80.9087L47.7221 80.7743C47.9246 80.7653 48.1273 80.7896 48.3182 80.8458C48.5091 80.9021 48.6844 80.9891 48.8338 81.1018C48.9831 81.2145 49.1036 81.3506 49.188 81.5021C49.2724 81.6535 49.3192 81.8174 49.3254 81.9839Z" stroke="#263238" stroke-linecap="round" stroke-linejoin="round"/>
<path d="M45.2681 82.6562L51.8121 180.426C51.8194 180.537 51.8534 180.646 51.9121 180.746C51.9708 180.847 52.053 180.937 52.1541 181.011C52.2551 181.085 52.373 181.142 52.5011 181.179C52.6291 181.216 52.7647 181.232 52.9001 181.225H53.6199" fill="#8173FF"/>
<path d="M45.2681 82.6562L51.8121 180.426C51.8194 180.537 51.8534 180.646 51.9121 180.746C51.9708 180.847 52.053 180.937 52.1541 181.011C52.2551 181.085 52.373 181.142 52.5011 181.179C52.6291 181.216 52.7647 181.232 52.9001 181.225H53.6199" stroke="#263238" stroke-linecap="round" stroke-linejoin="round"/>
<path opacity="0.2" d="M75.0515 201.909L97.2275 82.8778C97.9109 79.2184 100.335 75.9317 103.968 73.7403C107.6 71.5489 112.143 70.6322 116.598 71.1917L329.531 97.9709C331.737 98.2473 333.855 98.878 335.765 99.827C337.674 100.776 339.337 102.025 340.659 103.502C341.98 104.979 342.935 106.655 343.468 108.436C344.001 110.216 344.102 112.065 343.764 113.877L321.58 232.908C321.246 234.722 320.479 236.463 319.325 238.033C318.17 239.602 316.651 240.97 314.852 242.056C313.054 243.143 311.012 243.928 308.844 244.366C306.677 244.803 304.425 244.886 302.218 244.608L89.2765 217.822C84.8221 217.261 80.8213 215.269 78.1538 212.285C75.4863 209.301 74.3704 205.569 75.0515 201.909Z" fill="black" fill-opacity="0.7"/>
<path d="M92.141 87.356L93.825 78.3154C93.8578 78.1392 93.9744 77.9809 94.1493 77.8754C94.3241 77.7699 94.5428 77.7258 94.7573 77.7527L99.3986 78.3362L97.4684 88.6988L92.8271 88.1153C92.614 88.0885 92.4224 87.9938 92.294 87.8516C92.1655 87.7094 92.1105 87.5313 92.141 87.356Z" fill="#8173FF" stroke="#263238" stroke-linecap="round" stroke-linejoin="round"/>
<path d="M120.971 68.3155L131.976 69.6989C132.191 69.7259 132.383 69.8217 132.512 69.9653C132.64 70.109 132.694 70.2886 132.661 70.4648L131.951 74.2777L119.337 72.692L120.047 68.8791C120.08 68.7041 120.195 68.5467 120.368 68.4411C120.541 68.3356 120.758 68.2904 120.971 68.3155Z" fill="#8173FF" stroke="#263238" stroke-linecap="round" stroke-linejoin="round"/>
<path d="M135.97 70.1973L146.975 71.5807C147.189 71.6077 147.382 71.7035 147.51 71.8472C147.639 71.9908 147.692 72.1705 147.66 72.3466L146.949 76.1595L134.335 74.5738L135.046 70.7609C135.078 70.5859 135.194 70.4285 135.367 70.323C135.54 70.2174 135.756 70.1723 135.97 70.1973Z" fill="#8173FF" stroke="#263238" stroke-linecap="round" stroke-linejoin="round"/>
<path d="M72.5975 199.222L94.7735 80.1903C95.4569 76.5309 97.8813 73.2442 101.514 71.0528C105.146 68.8614 109.689 67.9447 114.144 68.5042L327.077 95.2834C329.283 95.5598 331.401 96.1905 333.311 97.1395C335.22 98.0886 336.883 99.3373 338.205 100.814C339.526 102.291 340.481 103.968 341.014 105.748C341.547 107.528 341.648 109.377 341.31 111.19L319.126 230.221C318.792 232.034 318.025 233.776 316.871 235.345C315.716 236.915 314.197 238.282 312.398 239.369C310.6 240.456 308.558 241.24 306.391 241.678C304.223 242.116 301.971 242.198 299.764 241.921L86.8225 215.135C82.3681 214.573 78.3673 212.581 75.6998 209.597C73.0323 206.613 71.9165 202.881 72.5975 199.222Z" fill="#8173FF" stroke="#263238" stroke-linecap="round" stroke-linejoin="round"/>
<path d="M300.599 240.435L86.5608 213.522C84.6735 213.286 82.8614 212.746 81.2281 211.934C79.5947 211.122 78.1722 210.054 77.0418 208.79C75.9113 207.526 75.0952 206.092 74.64 204.569C74.1848 203.046 74.0995 201.464 74.3889 199.914L96.7367 79.9685C97.3194 76.838 99.3919 74.0259 102.498 72.1507C105.605 70.2755 109.491 69.4907 113.301 69.9691L327.347 96.8827C331.158 97.3647 334.579 99.069 336.861 101.622C339.143 104.174 340.099 107.366 339.519 110.497L317.171 230.436C316.883 231.987 316.225 233.475 315.236 234.817C314.247 236.159 312.946 237.328 311.407 238.256C309.868 239.185 308.121 239.855 306.267 240.229C304.412 240.603 302.486 240.673 300.599 240.435Z" fill="#757575" stroke="#263238" stroke-linecap="round" stroke-linejoin="round"/>
<path d="M89.162 140.394C89.1349 140.524 89.0617 140.645 88.9517 140.741C88.8416 140.837 88.6996 140.904 88.5433 140.935C88.3869 140.965 88.2232 140.957 88.0726 140.911C87.9219 140.865 87.7909 140.784 87.696 140.678C87.6011 140.571 87.5464 140.444 87.5388 140.312C87.5311 140.181 87.5709 140.05 87.6531 139.937C87.7352 139.823 87.8562 139.732 88.0009 139.675C88.1456 139.618 88.3076 139.597 88.4667 139.615C88.5755 139.627 88.6801 139.657 88.7744 139.703C88.8687 139.749 88.9508 139.81 89.0157 139.883C89.0805 139.956 89.1269 140.039 89.1521 140.126C89.1772 140.214 89.1806 140.305 89.162 140.394Z" fill="#999999" stroke="#263238" stroke-linecap="round" stroke-linejoin="round"/>
<path d="M88.7612 146.651C88.6788 146.98 88.4456 147.27 88.1099 147.462C87.7741 147.654 87.3615 147.733 86.9572 147.682C86.553 147.631 86.1879 147.454 85.9376 147.189C85.6872 146.923 85.5706 146.589 85.6119 146.254C85.6944 145.925 85.9275 145.635 86.2633 145.443C86.599 145.251 87.0116 145.172 87.4159 145.223C87.8202 145.274 88.1852 145.451 88.4356 145.716C88.6859 145.982 88.8025 146.316 88.7612 146.651Z" fill="#263238"/>
<path d="M91.5669 131.591C91.4845 131.92 91.2513 132.211 90.9156 132.403C90.5799 132.595 90.1672 132.673 89.763 132.622C89.3587 132.571 88.9937 132.395 88.7433 132.129C88.4929 131.864 88.3763 131.529 88.4176 131.195C88.4395 131.018 88.5049 130.847 88.6098 130.691C88.7148 130.536 88.8571 130.4 89.0281 130.291C89.1992 130.182 89.3954 130.103 89.6048 130.058C89.8142 130.014 90.0324 130.005 90.2462 130.032C90.46 130.059 90.6649 130.121 90.8485 130.215C91.032 130.309 91.1904 130.433 91.3139 130.579C91.4375 130.724 91.5236 130.889 91.5671 131.064C91.6106 131.238 91.6106 131.417 91.5669 131.591Z" fill="#263238"/>
<path d="M87.526 150.878C87.4911 151.064 87.3896 151.238 87.2345 151.377C87.0794 151.516 86.8776 151.614 86.6545 151.659C86.4315 151.704 86.1972 151.694 85.9814 151.629C85.7656 151.565 85.5778 151.45 85.4419 151.297C85.3059 151.145 85.2279 150.964 85.2176 150.775C85.2073 150.587 85.2653 150.4 85.3841 150.239C85.503 150.077 85.6775 149.948 85.8854 149.868C86.0934 149.788 86.3256 149.761 86.5526 149.789C86.7036 149.808 86.8486 149.851 86.9792 149.916C87.1099 149.981 87.2237 150.067 87.3141 150.168C87.4045 150.269 87.4698 150.384 87.5062 150.505C87.5425 150.627 87.5493 150.754 87.526 150.878Z" fill="#263238"/>
<path d="M334.145 108.435L311.298 231.088C311.01 232.634 309.986 234.022 308.452 234.948C306.919 235.874 305 236.263 303.118 236.027L123.804 213.482L119.919 213.025L105.301 211.183L98.2255 210.296L88.0005 208.993L85.7673 208.71C83.8858 208.473 82.1956 207.633 81.0683 206.373C79.9409 205.113 79.4686 203.536 79.755 201.99L102.61 79.2966C102.752 78.5311 103.076 77.796 103.564 77.1336C104.052 76.4711 104.694 75.8943 105.454 75.4361C106.214 74.9779 107.076 74.6473 107.992 74.4634C108.908 74.2795 109.858 74.2457 110.79 74.3642L177.727 82.7776L187.854 84.0544L197.531 85.2707L209.964 86.8298L214.463 87.3942L328.165 101.688C329.097 101.808 329.991 102.078 330.796 102.482C331.601 102.886 332.301 103.417 332.856 104.043C333.412 104.67 333.811 105.38 334.032 106.134C334.253 106.887 334.292 107.669 334.145 108.435Z" fill="#263238"/>
<g opacity="0.1">
<path d="M166.054 212.352L89.98 202.79C89.4857 202.727 89.042 202.505 88.746 202.174C88.4501 201.843 88.3261 201.429 88.4013 201.022L95.9514 160.481C96.03 160.074 96.3012 159.709 96.7057 159.466C97.1103 159.223 97.6155 159.122 98.111 159.184L174.185 168.746C174.43 168.777 174.666 168.846 174.878 168.952C175.09 169.057 175.275 169.196 175.422 169.36C175.568 169.524 175.674 169.711 175.733 169.909C175.792 170.107 175.802 170.312 175.764 170.514L168.214 211.055C168.176 211.257 168.09 211.451 167.961 211.625C167.832 211.8 167.662 211.951 167.461 212.072C167.261 212.192 167.033 212.279 166.792 212.327C166.55 212.375 166.3 212.384 166.054 212.352ZM98.0373 159.721C97.8778 159.701 97.715 159.707 97.5583 159.739C97.4016 159.771 97.254 159.828 97.1241 159.906C96.9942 159.985 96.8844 160.084 96.8011 160.197C96.7178 160.311 96.6625 160.437 96.6386 160.568L89.0884 201.103C89.064 201.234 89.0714 201.368 89.11 201.497C89.1486 201.625 89.2178 201.747 89.3135 201.853C89.4093 201.96 89.5297 202.05 89.6679 202.119C89.8062 202.187 89.9595 202.233 90.1191 202.252L166.152 211.815C166.312 211.835 166.475 211.829 166.631 211.797C166.788 211.765 166.936 211.708 167.065 211.63C167.195 211.551 167.305 211.452 167.388 211.339C167.472 211.225 167.527 211.099 167.551 210.968L175.109 170.433C175.156 170.168 175.075 169.898 174.882 169.682C174.689 169.466 174.401 169.32 174.079 169.277L98.0373 159.721Z" fill="white"/>
</g>
<path opacity="0.4" d="M120.982 184.256L138.013 192.193C139.816 189.476 140.654 186.397 140.432 183.308C140.209 180.219 138.934 177.244 136.753 174.721L120.982 184.256Z" fill="#8173FF"/>
<path opacity="0.6" d="M121.146 183.456L136.361 174.27C134.305 172.045 131.594 170.285 128.483 169.156L125.481 175.003L121.146 183.456Z" fill="#8173FF"/>
<path d="M123.739 168L121.105 182.112L127.878 168.921C126.542 168.494 125.154 168.186 123.739 168Z" fill="#8173FF"/>
<path opacity="0.1" d="M120.082 184.088L123.084 167.96C119.637 167.572 116.126 167.928 112.895 168.991C109.665 170.055 106.827 171.79 104.658 174.026C102.49 176.261 101.066 178.922 100.526 181.746C99.9867 184.57 100.349 187.461 101.579 190.136L120.082 184.088Z" fill="white"/>
<path opacity="0.2" d="M117.334 200.592C121.303 201.091 125.363 200.601 128.991 199.187C132.618 197.772 135.647 195.497 137.686 192.656L120.352 184.592L101.816 190.606C103.14 193.226 105.263 195.522 107.981 197.271C110.699 199.02 113.921 200.164 117.334 200.592Z" fill="#8173FF"/>
<path d="M151.952 174.55L149.696 174.266C149.415 174.231 149.152 174.39 149.109 174.621L148.764 176.474C148.721 176.705 148.914 176.921 149.195 176.956L151.451 177.24C151.733 177.275 151.996 177.117 152.039 176.886L152.384 175.032C152.427 174.801 152.234 174.585 151.952 174.55Z" fill="#8173FF"/>
<path d="M164.214 177.106L154.357 175.863C154.307 175.857 154.259 175.843 154.216 175.822C154.173 175.801 154.136 175.773 154.106 175.74C154.076 175.706 154.055 175.669 154.043 175.629C154.031 175.589 154.03 175.547 154.038 175.506C154.045 175.466 154.061 175.426 154.087 175.391C154.113 175.356 154.147 175.325 154.187 175.3C154.228 175.276 154.274 175.258 154.322 175.249C154.371 175.239 154.422 175.238 154.471 175.244L164.287 176.488C164.337 176.493 164.385 176.507 164.428 176.528C164.471 176.549 164.508 176.577 164.538 176.61C164.568 176.644 164.589 176.681 164.601 176.721C164.612 176.761 164.614 176.803 164.606 176.844C164.589 176.918 164.54 176.986 164.468 177.034C164.396 177.082 164.306 177.107 164.214 177.106Z" fill="#8173FF"/>
<path d="M160.95 178.08L154.103 177.22C154.053 177.214 154.006 177.2 153.963 177.179C153.919 177.158 153.882 177.13 153.852 177.097C153.823 177.064 153.801 177.026 153.789 176.986C153.778 176.946 153.776 176.905 153.784 176.864C153.8 176.782 153.855 176.709 153.936 176.66C154.017 176.611 154.118 176.59 154.218 176.602L161.064 177.462C161.114 177.468 161.162 177.481 161.205 177.503C161.248 177.524 161.285 177.552 161.315 177.585C161.345 177.618 161.366 177.656 161.378 177.696C161.389 177.736 161.391 177.777 161.383 177.818C161.376 177.859 161.359 177.898 161.334 177.934C161.308 177.969 161.274 178 161.234 178.024C161.193 178.049 161.147 178.066 161.099 178.076C161.05 178.085 160.999 178.087 160.95 178.08Z" fill="#8173FF"/>
<path opacity="0.6" d="M150.832 180.571L148.576 180.288C148.295 180.252 148.032 180.411 147.989 180.642L147.644 182.495C147.601 182.727 147.794 182.943 148.075 182.978L150.331 183.262C150.612 183.297 150.875 183.138 150.918 182.907L151.264 181.054C151.307 180.823 151.113 180.607 150.832 180.571Z" fill="#8173FF"/>
<path d="M163.093 183.121L153.228 181.884C153.129 181.869 153.042 181.824 152.982 181.758C152.923 181.692 152.897 181.61 152.909 181.528C152.925 181.446 152.979 181.373 153.06 181.324C153.141 181.275 153.243 181.254 153.342 181.266L163.207 182.509C163.256 182.515 163.303 182.529 163.345 182.55C163.388 182.571 163.425 182.599 163.454 182.632C163.483 182.665 163.504 182.702 163.516 182.741C163.528 182.781 163.53 182.822 163.522 182.862C163.515 182.902 163.498 182.941 163.472 182.975C163.446 183.01 163.413 183.04 163.373 183.064C163.333 183.088 163.288 183.106 163.24 183.115C163.192 183.125 163.142 183.127 163.093 183.121Z" fill="#8173FF"/>
<path d="M159.829 184.088L152.966 183.228C152.877 183.206 152.801 183.158 152.752 183.094C152.702 183.03 152.683 182.953 152.697 182.878C152.711 182.803 152.757 182.734 152.828 182.685C152.898 182.635 152.988 182.609 153.081 182.609L159.927 183.47C159.977 183.475 160.025 183.489 160.068 183.51C160.111 183.531 160.148 183.559 160.178 183.592C160.208 183.626 160.229 183.663 160.241 183.703C160.252 183.743 160.254 183.785 160.246 183.826C160.232 183.905 160.18 183.977 160.102 184.026C160.025 184.075 159.926 184.097 159.829 184.088Z" fill="#8173FF"/>
<path opacity="0.4" d="M150.223 186.718L147.964 186.437C147.682 186.401 147.419 186.561 147.376 186.792L147.034 188.648C146.991 188.88 147.185 189.096 147.467 189.131L149.726 189.412C150.008 189.447 150.271 189.288 150.314 189.057L150.656 187.2C150.699 186.969 150.505 186.753 150.223 186.718Z" fill="#8173FF"/>
<path d="M161.964 189.142L152.148 187.905C152.059 187.883 151.983 187.836 151.934 187.772C151.884 187.707 151.865 187.631 151.879 187.555C151.893 187.48 151.939 187.412 152.01 187.362C152.08 187.313 152.17 187.286 152.263 187.287L162.079 188.524C162.128 188.529 162.176 188.543 162.219 188.564C162.262 188.585 162.3 188.613 162.329 188.647C162.359 188.68 162.38 188.717 162.392 188.757C162.404 188.798 162.406 188.839 162.398 188.88C162.391 188.921 162.374 188.96 162.348 188.995C162.322 189.031 162.288 189.061 162.248 189.086C162.208 189.11 162.162 189.128 162.113 189.137C162.064 189.147 162.013 189.148 161.964 189.142Z" fill="#8173FF"/>
<path d="M158.692 190.109L151.845 189.249C151.757 189.227 151.681 189.18 151.631 189.115C151.582 189.051 151.562 188.974 151.576 188.899C151.59 188.824 151.637 188.755 151.707 188.706C151.778 188.657 151.867 188.63 151.96 188.631L158.807 189.491C158.895 189.513 158.971 189.56 159.021 189.625C159.07 189.689 159.09 189.766 159.076 189.841C159.062 189.916 159.015 189.985 158.945 190.034C158.874 190.083 158.785 190.11 158.692 190.109Z" fill="#8173FF"/>
<path opacity="0.2" d="M148.592 192.613L146.336 192.33C146.054 192.294 145.791 192.453 145.748 192.684L145.403 194.537C145.36 194.769 145.553 194.985 145.834 195.02L148.09 195.304C148.372 195.339 148.635 195.18 148.678 194.949L149.023 193.096C149.066 192.865 148.873 192.649 148.592 192.613Z" fill="#8173FF"/>
<path d="M160.843 195.163L151.027 193.926C150.928 193.913 150.839 193.868 150.779 193.801C150.72 193.735 150.694 193.652 150.708 193.57C150.715 193.529 150.732 193.49 150.758 193.454C150.784 193.419 150.818 193.388 150.858 193.364C150.898 193.339 150.944 193.322 150.993 193.312C151.042 193.303 151.092 193.301 151.142 193.308L160.999 194.544C161.048 194.55 161.096 194.564 161.139 194.585C161.182 194.606 161.22 194.634 161.25 194.667C161.279 194.7 161.301 194.738 161.312 194.778C161.324 194.818 161.326 194.86 161.318 194.9C161.312 194.945 161.294 194.987 161.265 195.026C161.237 195.064 161.199 195.096 161.154 195.121C161.109 195.146 161.058 195.163 161.004 195.17C160.951 195.177 160.896 195.174 160.843 195.163Z" fill="#8173FF"/>
<path d="M157.588 196.13L150.741 195.27C150.691 195.264 150.644 195.25 150.601 195.229C150.557 195.208 150.52 195.18 150.49 195.147C150.461 195.114 150.439 195.076 150.427 195.036C150.416 194.996 150.414 194.954 150.422 194.914C150.429 194.873 150.446 194.834 150.472 194.798C150.497 194.763 150.531 194.732 150.572 194.708C150.612 194.683 150.658 194.666 150.707 194.656C150.755 194.646 150.806 194.645 150.856 194.652L157.702 195.512C157.802 195.525 157.891 195.57 157.95 195.636C158.01 195.703 158.035 195.786 158.021 195.868C158.014 195.909 157.997 195.948 157.972 195.983C157.946 196.019 157.912 196.049 157.872 196.074C157.831 196.098 157.785 196.116 157.737 196.125C157.688 196.135 157.637 196.137 157.588 196.13Z" fill="#8173FF"/>
<path opacity="0.1" d="M147.471 198.641L145.215 198.357C144.934 198.322 144.671 198.48 144.628 198.711L144.283 200.565C144.24 200.796 144.433 201.012 144.714 201.047L146.97 201.331C147.252 201.366 147.515 201.208 147.558 200.976L147.903 199.123C147.946 198.892 147.753 198.676 147.471 198.641Z" fill="white"/>
<path d="M159.723 201.184L149.907 199.948C149.807 199.934 149.718 199.89 149.659 199.823C149.599 199.756 149.574 199.673 149.588 199.591C149.595 199.551 149.611 199.511 149.637 199.476C149.663 199.441 149.697 199.41 149.737 199.385C149.778 199.361 149.824 199.343 149.872 199.334C149.921 199.324 149.972 199.323 150.021 199.329L159.878 200.566C159.928 200.571 159.976 200.585 160.019 200.606C160.062 200.628 160.099 200.655 160.129 200.689C160.159 200.722 160.18 200.76 160.192 200.8C160.203 200.84 160.205 200.881 160.197 200.922C160.191 200.966 160.173 201.009 160.145 201.047C160.116 201.085 160.078 201.118 160.033 201.143C159.988 201.168 159.937 201.184 159.884 201.191C159.83 201.198 159.775 201.196 159.723 201.184Z" fill="#8173FF"/>
<path d="M156.467 202.152L149.612 201.291C149.563 201.285 149.516 201.27 149.474 201.249C149.432 201.228 149.396 201.199 149.367 201.166C149.338 201.133 149.317 201.096 149.306 201.056C149.295 201.016 149.293 200.975 149.301 200.935C149.307 200.894 149.323 200.854 149.349 200.818C149.374 200.783 149.408 200.751 149.449 200.727C149.489 200.702 149.536 200.685 149.585 200.676C149.634 200.666 149.685 200.666 149.735 200.673L156.582 201.533C156.637 201.534 156.691 201.544 156.741 201.563C156.791 201.582 156.835 201.61 156.871 201.644C156.906 201.679 156.933 201.719 156.948 201.763C156.963 201.806 156.966 201.852 156.958 201.897C156.95 201.941 156.93 201.984 156.9 202.022C156.87 202.06 156.83 202.092 156.783 202.116C156.737 202.14 156.684 202.156 156.63 202.162C156.575 202.168 156.52 202.165 156.467 202.152Z" fill="#8173FF"/>
<g opacity="0.1">
<path d="M309.335 185.728L185.686 170.185C185.191 170.123 184.685 170.224 184.281 170.467C183.876 170.71 183.605 171.075 183.527 171.482L183.003 174.277L182.905 174.815L182.201 178.585L182.103 179.122L181.4 182.886L181.302 183.416L180.598 187.186L180.5 187.717L179.796 191.487L179.698 192.025L178.995 195.788L178.897 196.326L178.193 200.089L178.095 200.626L177.392 204.389L177.293 204.927L176.59 208.69L176.492 209.228L175.976 212.023C175.938 212.225 175.948 212.431 176.007 212.629C176.066 212.828 176.171 213.015 176.318 213.179C176.464 213.344 176.649 213.484 176.862 213.59C177.074 213.696 177.31 213.766 177.555 213.798L301.179 229.341C301.674 229.401 302.177 229.297 302.579 229.053C302.98 228.808 303.248 228.443 303.323 228.037L303.846 225.242L303.944 224.704L304.648 220.941L304.746 220.403L305.449 216.633L305.548 216.102L306.251 212.339L306.349 211.802L307.053 208.038L307.151 207.501L307.854 203.731L307.953 203.2L308.656 199.43L308.754 198.899L309.458 195.136L309.556 194.598L310.259 190.829L310.357 190.291L310.881 187.495C310.957 187.093 310.837 186.682 310.548 186.352C310.259 186.021 309.823 185.797 309.335 185.728ZM302.709 227.957C302.659 228.221 302.483 228.458 302.222 228.616C301.96 228.775 301.632 228.842 301.31 228.803L177.694 213.26C177.371 213.218 177.08 213.074 176.886 212.857C176.691 212.641 176.608 212.37 176.655 212.104L177.179 209.309L303.224 225.161L302.709 227.957ZM303.331 224.597L177.277 208.751L177.98 204.981L304.026 220.833L303.331 224.597ZM304.149 220.296L178.079 204.477L178.782 200.707L304.828 216.553L304.149 220.296ZM304.967 215.995L178.913 200.142L179.616 196.379L305.662 212.225L304.967 215.995ZM305.785 211.694L179.731 195.842L180.434 192.078L306.48 207.931L305.785 211.694ZM306.603 207.393L180.549 191.541L181.252 187.771L307.298 203.623L306.603 207.393ZM307.421 203.086L181.367 187.24L182.07 183.477L308.116 199.323L307.421 203.086ZM308.239 198.785L182.087 182.966L182.79 179.203L308.836 195.049L308.239 198.785ZM309.057 194.491L182.888 178.665L183.592 174.895L309.638 190.748L309.057 194.491ZM183.813 174.331L184.336 171.542C184.36 171.411 184.416 171.285 184.499 171.172C184.582 171.058 184.692 170.959 184.822 170.88C184.952 170.802 185.099 170.745 185.256 170.713C185.413 170.681 185.576 170.675 185.735 170.695L309.204 186.266C309.525 186.307 309.813 186.451 310.004 186.667C310.196 186.882 310.276 187.151 310.227 187.415L309.703 190.21L183.813 174.331Z" fill="white"/>
</g>
<g opacity="0.1">
<path d="M322.537 113.38L111.886 86.8896C111.606 86.8543 111.321 86.8647 111.046 86.9203C110.771 86.9759 110.512 87.0756 110.284 87.2136C110.056 87.3515 109.863 87.5251 109.717 87.7244C109.571 87.9237 109.474 88.1446 109.432 88.3747L97.6283 151.724C97.5437 152.187 97.6853 152.659 98.0225 153.037C98.3596 153.414 98.8648 153.667 99.4279 153.74L310.087 180.23C310.651 180.3 311.226 180.184 311.685 179.907C312.145 179.63 312.453 179.215 312.541 178.752L324.345 115.396C324.388 115.166 324.375 114.931 324.308 114.705C324.24 114.479 324.119 114.267 323.951 114.079C323.783 113.892 323.572 113.734 323.329 113.614C323.087 113.494 322.817 113.414 322.537 113.38ZM150.757 122.485L165.383 124.32L164.107 131.148L149.457 129.306L150.757 122.485ZM148.835 129.205L134.152 127.398L135.428 120.564L150.079 122.405L148.835 129.205ZM166.054 124.414L180.713 126.255L179.437 133.09L164.786 131.248L166.054 124.414ZM242.03 133.419L227.38 131.578L228.647 124.743L243.306 126.585L242.03 133.419ZM243.952 126.699L258.611 128.54L257.335 135.374L242.684 133.533L243.952 126.699ZM196.664 128.298L211.322 130.14L210.046 136.974L195.371 135.072L196.664 128.298ZM194.741 135.018L180.091 133.177L181.334 126.336L195.993 128.177L194.741 135.018ZM211.968 130.193L226.586 132.028L225.31 138.862L210.66 137.021L211.968 130.193ZM227.273 132.115L241.932 133.956L240.656 140.791L226.005 138.949L227.273 132.115ZM226.725 131.497L212.075 129.656L213.343 122.821L228.001 124.669L226.725 131.497ZM211.42 129.575L196.77 127.734L198.038 120.9L212.68 122.734L211.42 129.575ZM196.091 127.68L181.441 125.832L182.709 118.944L197.367 120.785L196.091 127.68ZM180.778 125.718L166.128 123.876L167.396 117.042L182.054 118.884L180.778 125.718ZM179.306 133.627L178.038 140.448L163.387 138.607L164.663 131.772L179.306 133.627ZM179.96 133.708L194.61 135.549L193.334 142.383L178.684 140.542L179.96 133.708ZM195.265 135.63L209.915 137.471L208.639 144.305L193.997 142.464L195.265 135.63ZM210.57 137.552L225.22 139.4L223.944 146.227L209.294 144.386L210.57 137.552ZM225.874 139.48L240.525 141.322L239.249 148.156L224.598 146.315L225.874 139.48ZM241.179 141.402L255.83 143.244L254.553 150.078L239.903 148.236L241.179 141.402ZM241.277 140.871L242.545 134.037L257.204 135.878L255.928 142.713L241.277 140.871ZM257.85 135.959L272.509 137.8L271.232 144.635L256.582 142.793L257.85 135.959ZM273.155 137.881L287.813 139.729L286.537 146.556L271.887 144.715L273.155 137.881ZM273.261 137.35L274.529 130.516L289.196 132.384L287.936 139.191L273.261 137.35ZM272.607 137.269L257.956 135.421L259.224 128.587L273.883 130.435L272.607 137.269ZM259.306 128.056L260.582 121.222L275.233 123.063L274.03 129.898L259.306 128.056ZM258.66 127.976L244.009 126.128L245.277 119.3L259.928 121.141L258.66 127.976ZM243.355 126.047L228.696 124.206L229.973 117.372L244.623 119.213L243.355 126.047ZM228.05 124.125L213.416 122.304L214.692 115.47L229.343 117.311L228.05 124.125ZM212.745 122.196L198.12 120.355L199.388 113.521L214.038 115.369L212.745 122.196ZM197.465 120.288L182.815 118.447L184.05 111.599L198.774 113.44L197.465 120.288ZM182.16 118.366L167.502 116.525L168.778 109.691L183.428 111.552L182.16 118.366ZM166.872 116.424L152.222 114.583L153.49 107.748L168.14 109.596L166.872 116.424ZM166.774 116.962L165.498 123.796L150.847 121.955L152.115 115.12L166.774 116.962ZM150.193 121.874L135.543 120.026L136.811 113.192L151.469 115.04L150.193 121.874ZM134.888 119.945L120.246 118.104L121.514 111.27L136.173 113.111L134.888 119.945ZM134.79 120.483L133.514 127.317L118.864 125.476L120.14 118.642L134.79 120.483ZM133.416 127.875L132.14 134.709L117.489 132.868L118.765 126.034L133.416 127.875ZM134.07 127.962L148.721 129.804L147.445 136.638L132.794 134.79L134.07 127.962ZM149.375 129.884L164.009 131.712L162.733 138.546L148.058 136.692L149.375 129.884ZM162.635 139.104L161.359 145.938L146.708 144.09L147.984 137.256L162.635 139.104ZM163.289 139.185L177.94 141.026L176.688 147.84L162.029 145.999L163.289 139.185ZM178.594 141.107L193.244 142.948L191.968 149.782L177.318 147.941L178.594 141.107ZM193.866 143.002L208.59 144.843L207.314 151.677L192.623 149.856L193.866 143.002ZM209.171 144.924L223.821 146.765L222.545 153.599L207.895 151.758L209.171 144.924ZM224.476 146.845L239.126 148.693L237.85 155.521L223.2 153.68L224.476 146.845ZM239.78 148.774L254.431 150.615L253.155 157.45L238.504 155.608L239.78 148.774ZM255.085 150.696L269.768 152.544L268.492 159.378L253.842 157.537L255.085 150.696ZM255.183 150.158L256.459 143.331L271.143 145.152L269.866 151.986L255.183 150.158ZM271.764 145.253L286.415 147.094L285.138 153.928L270.488 152.087L271.764 145.253ZM287.118 147.168L301.768 149.009L300.492 155.844L285.842 154.002L287.118 147.168ZM287.216 146.637L288.484 139.803L303.143 141.644L301.842 148.512L287.216 146.637ZM288.59 139.245L289.858 132.411L304.517 134.252L303.224 141.12L288.59 139.245ZM289.957 131.853L291.208 125.073L305.858 126.914L304.599 133.728L289.957 131.853ZM289.31 131.766L274.652 129.924L275.928 123.09L290.562 124.992L289.31 131.766ZM276.026 122.559L277.302 115.779L291.936 117.6L290.668 124.434L276.026 122.559ZM275.38 122.472L260.721 120.631L261.997 113.796L276.648 115.644L275.38 122.472ZM260.075 120.55L245.4 118.763L246.676 111.928L261.327 113.77L260.075 120.55ZM244.77 118.628L230.112 116.787L231.388 109.953L246.038 111.794L244.77 118.628ZM229.465 116.7L214.79 114.912L216.067 108.078L230.717 109.919L229.465 116.7ZM214.161 114.778L199.502 112.936L200.762 106.176L215.412 108.017L214.161 114.778ZM198.839 112.896L184.181 111.048L185.457 104.22L200.107 106.062L198.839 112.896ZM183.535 110.967L168.876 109.126L170.144 102.305L184.803 104.16L183.535 110.967ZM168.23 109.045L153.571 107.204L154.847 100.37L169.498 102.211L168.23 109.045ZM152.966 107.13L138.242 105.289L139.518 98.4547L154.169 100.303L152.966 107.13ZM152.86 107.668L151.592 114.502L136.941 112.661L138.209 105.827L152.86 107.668ZM136.287 112.58L121.637 110.732L122.905 103.905L137.555 105.746L136.287 112.58ZM120.982 110.652L106.332 108.81L107.6 101.976L122.258 103.817L120.982 110.652ZM120.884 111.189L119.608 118.023L104.958 116.182L106.226 109.348L120.884 111.189ZM119.51 118.581L118.234 125.415L103.583 123.574L104.859 116.74L119.51 118.581ZM118.136 125.973L116.86 132.807L102.209 130.966L103.485 124.132L118.136 125.973ZM116.761 133.365L115.493 140.193L100.835 138.351L102.111 131.517L116.761 133.365ZM117.416 133.446L132.066 135.287L130.798 142.121L116.14 140.28L117.416 133.446ZM132.721 135.368L147.371 137.209L146.095 144.043L131.444 142.202L132.721 135.368ZM145.997 144.581L144.729 151.415L130.062 149.507L131.338 142.672L145.997 144.581ZM146.651 144.661L161.301 146.503L160.034 153.337L145.375 151.496L146.651 144.661ZM161.915 146.496L176.565 148.344L175.297 155.172L160.639 153.33L161.915 146.496ZM177.22 148.425L191.87 150.266L190.594 157.12L175.935 155.279L177.22 148.425ZM192.525 150.347L207.175 152.188L205.907 159.022L191.248 157.181L192.525 150.347ZM207.829 152.275L222.496 154.137L221.228 160.971L206.57 159.123L207.829 152.275ZM223.134 154.197L237.784 156.038L236.517 162.873L221.858 161.031L223.134 154.197ZM238.439 156.119L253.089 157.96L251.821 164.795L237.163 162.953L238.439 156.119ZM253.744 158.048L268.394 159.936L267.126 166.77L252.468 164.929L253.744 158.048ZM269.048 159.97L283.699 161.811L282.431 168.672L267.772 166.831L269.048 159.97ZM269.147 159.432L270.423 152.598L285.073 154.446L283.797 161.28L269.147 159.432ZM285.727 154.56L300.378 156.401L299.102 163.236L284.451 161.394L285.727 154.56ZM301.024 156.468L315.674 158.31L314.398 165.144L299.756 163.296L301.024 156.468ZM301.122 155.938L302.398 149.103L317.049 150.945L315.748 157.779L301.122 155.938ZM302.496 148.546L303.764 141.711L318.423 143.553L317.147 150.387L302.496 148.546ZM303.871 141.154L305.114 134.4L319.838 136.208L318.57 143.042L303.871 141.154ZM305.237 133.762L306.521 127.008L321.171 128.849L319.903 135.684L305.237 133.762ZM306.611 126.37L307.895 119.616L322.546 121.457L321.278 128.292L306.611 126.37ZM305.965 126.289L291.306 124.448L292.582 117.613L307.233 119.455L305.965 126.289ZM292.68 117.076L293.957 110.248L308.607 112.09L307.331 118.924L292.68 117.076ZM292.026 116.995L277.376 115.154L278.652 108.32L293.302 110.161L292.026 116.995ZM276.721 115.073L262.071 113.232L263.396 106.485L278.046 108.326L276.721 115.073ZM261.416 113.151L246.766 111.303L248.042 104.476L262.693 106.317L261.416 113.151ZM246.112 111.223L231.494 109.469L232.77 102.635L247.421 104.476L246.112 111.223ZM230.807 109.301L216.165 107.52L217.441 100.686L232.091 102.527L230.807 109.301ZM215.502 107.372L200.852 105.531L202.136 98.784L216.77 100.632L215.502 107.372ZM200.206 105.45L185.547 103.609L186.823 96.7747L201.473 98.616L200.206 105.45ZM184.901 103.528L170.242 101.68L171.518 94.8528L186.177 96.768L184.901 103.528ZM169.588 101.6L154.937 99.7584L156.238 93.0115L170.888 94.8528L169.588 101.6ZM154.291 99.6778L139.633 97.8365L140.909 91.0022L155.559 92.8435L154.291 99.6778ZM138.986 97.7558L124.336 95.9952L125.612 89.1677L140.263 91.009L138.986 97.7558ZM138.88 98.2867L137.612 105.121L122.954 103.28L124.23 96.4454L138.88 98.2867ZM122.307 103.199L107.657 101.472L108.933 94.6378L123.583 96.479L122.307 103.199ZM100.696 138.822L115.338 140.663L114.07 147.497L99.4116 145.656L100.696 138.822ZM116.001 140.744L130.651 142.585L129.383 149.419L114.725 147.578L116.001 140.744ZM129.244 149.957L127.976 156.791L113.326 154.95L114.594 148.116L129.244 149.957ZM129.898 150.037L144.582 151.872L143.314 158.706L128.663 156.865L129.898 150.037ZM145.203 151.966L159.854 153.807L158.586 160.642L143.968 158.794L145.203 151.966ZM160.541 153.888L175.191 155.729L173.923 162.564L159.265 160.722L160.541 153.888ZM175.87 155.81L190.52 157.658L189.253 164.485L174.578 162.624L175.87 155.81ZM191.175 157.739L205.825 159.58L204.5 166.414L189.85 164.573L191.175 157.739ZM206.48 159.66L221.13 161.502L219.862 168.336L205.204 166.495L206.48 159.66ZM221.784 161.582L236.402 163.43L235.134 170.258L220.476 168.417L221.784 161.582ZM237.089 163.511L251.74 165.352L250.472 172.187L235.813 170.345L237.089 163.511ZM252.394 165.433L267.044 167.274L265.776 174.108L251.126 172.267L252.394 165.433ZM267.699 167.362L282.349 169.203L281.057 176.064L266.398 174.216L267.699 167.362ZM283.004 169.284L297.654 171.125L296.386 177.959L281.727 176.118L283.004 169.284ZM283.102 168.746L284.378 161.912L299.028 163.76L297.752 170.587L283.102 168.746ZM299.683 163.84L314.333 165.682L313.065 172.516L298.382 170.688L299.683 163.84ZM323.715 115.315L322.644 120.96L307.993 119.119L309.269 112.284L322.439 113.938C322.826 113.987 323.173 114.159 323.407 114.417C323.641 114.674 323.743 114.997 323.691 115.315H323.715ZM111.853 87.4272L125.023 89.0803L123.755 95.9146L109.031 94.08L110.078 88.4621C110.107 88.3017 110.175 88.1476 110.276 88.0087C110.378 87.8697 110.512 87.7487 110.671 87.6525C110.83 87.5563 111.01 87.4869 111.202 87.4482C111.394 87.4096 111.593 87.4024 111.788 87.4272H111.853ZM98.34 151.805L99.387 146.187L114.037 148.035L112.77 154.862L99.5261 153.216C99.1326 153.165 98.7799 152.987 98.5453 152.723C98.3107 152.458 98.2133 152.128 98.2746 151.805H98.34ZM310.186 179.7L297.008 178.04L298.284 171.205L312.934 173.047L311.887 178.671C311.827 178.993 311.614 179.281 311.295 179.474C310.976 179.667 310.577 179.748 310.186 179.7Z" fill="white"/>
</g>
<path opacity="0.5" d="M315.584 158.848L311.887 178.659C311.859 178.812 311.795 178.959 311.697 179.092C311.6 179.225 311.471 179.34 311.319 179.432C311.167 179.524 310.994 179.59 310.811 179.627C310.628 179.664 310.438 179.67 310.251 179.646L99.477 153.143C99.2911 153.119 99.1128 153.065 98.9521 152.985C98.7915 152.905 98.6517 152.799 98.5408 152.674C98.4299 152.549 98.35 152.408 98.3057 152.257C98.2614 152.107 98.2536 151.951 98.2827 151.799L98.7735 149.151C98.7735 149.151 108.68 142.592 114.88 143.372C122.201 144.292 123.518 147.706 130.062 148.513C136.606 149.319 143.772 136.887 149.694 137.626C152.892 138.029 153.71 140.052 155.273 141.907C155.943 142.76 156.832 143.482 157.878 144.022C158.924 144.563 160.1 144.91 161.326 145.038L161.571 145.072C169.588 146.08 180.434 111.123 191.461 112.507C196.369 113.118 198.308 120.833 199.772 129.354C201.629 140.106 202.676 152.202 207.788 152.813C216.934 153.963 220.058 138.701 228.549 139.797C233.891 140.469 235.838 148.6 240.337 155.044C242.995 158.855 246.553 162.08 252.247 162.793C257.425 163.465 260.885 162.457 263.576 160.904C268.852 157.874 271.208 152.699 277.801 153.512C281.711 154.003 283.134 156.476 284.59 158.808C285.858 160.824 287.151 162.772 290.161 163.149C293.703 163.599 296.705 159.433 299.92 155.757C302.546 152.719 305.286 149.991 308.541 150.381C311.797 150.771 313.842 154.083 314.832 156.429C315.141 157.222 315.392 158.03 315.584 158.848Z" fill="#8173FF"/>
<path opacity="0.5" d="M320.656 131.625L311.887 178.665C311.859 178.819 311.795 178.966 311.697 179.099C311.6 179.231 311.471 179.347 311.319 179.439C311.167 179.531 310.994 179.597 310.811 179.634C310.628 179.67 310.437 179.677 310.251 179.653L99.477 153.143C99.2911 153.119 99.1128 153.065 98.9521 152.985C98.7915 152.905 98.6517 152.799 98.5408 152.674C98.4299 152.549 98.35 152.408 98.3057 152.257C98.2614 152.107 98.2536 151.951 98.2827 151.799L98.7735 149.151C107.526 150.253 112.197 144.87 118.07 145.61C123.943 146.349 126.986 149.716 132.483 150.408C137.98 151.1 146.463 140.529 152.475 141.289C153.418 141.401 154.339 141.613 155.216 141.92C157.53 142.713 159.126 143.99 161.269 145.052C162.955 145.892 164.83 146.445 166.782 146.678C173.825 147.558 187.919 126.619 196.091 127.647C197.506 127.857 198.787 128.465 199.715 129.367C204.541 133.688 205.784 144.494 212.59 145.348C220.844 146.389 225.261 135.362 233.269 136.363C241.277 137.364 243.633 148.708 252.901 149.87C262.169 151.033 272.222 130.228 281.85 131.437C291.478 132.647 294.226 143.338 302.595 144.387C311.781 145.542 320.656 131.625 320.656 131.625Z" fill="#8173FF"/>
<path d="M316.566 153.492L311.871 178.658C311.843 178.812 311.778 178.959 311.681 179.092C311.583 179.224 311.455 179.34 311.303 179.432C311.151 179.524 310.978 179.59 310.795 179.627C310.611 179.663 310.421 179.67 310.235 179.646L99.477 153.142C99.2911 153.119 99.1128 153.065 98.9521 152.985C98.7915 152.904 98.6517 152.799 98.5408 152.674C98.4299 152.549 98.35 152.407 98.3057 152.257C98.2614 152.107 98.2536 151.951 98.2827 151.798L98.52 150.502C98.8226 150.266 103.788 146.416 108.827 147.047C114.037 147.719 114.054 151.536 121.318 152.423C128.581 153.31 130.7 148.613 141.007 149.91C151.314 151.207 151.281 157.127 161.94 158.471C172.598 159.815 174.798 152.712 182.39 153.667C189.981 154.621 189.449 158.243 193.752 158.781C198.054 159.318 200.557 153.781 205.85 154.446C211.142 155.111 215.191 164.224 221.155 164.976C225.343 165.501 232.746 158.686 240.304 155.031C243.494 153.485 246.725 152.504 249.735 152.887C255.96 153.667 259.592 157.658 263.543 160.891C265.997 162.907 268.639 164.654 272.091 165.091C276.999 165.709 280.77 162.04 284.558 158.814C287.633 156.187 290.734 153.848 294.505 154.318C296.391 154.516 298.216 154.999 299.887 155.743C303.159 157.248 304.018 159.278 307.928 159.775C312.631 160.387 316.566 153.492 316.566 153.492Z" fill="#8173FF"/>
<path d="M124.377 84.8466L113.056 83.4219C112.794 83.3892 112.543 83.3143 112.316 83.2015C112.09 83.0888 111.893 82.9405 111.736 82.7651C111.58 82.5897 111.467 82.3906 111.404 82.1793C111.341 81.968 111.33 81.7485 111.371 81.5336C111.451 81.0989 111.739 80.7083 112.17 80.4475C112.601 80.1867 113.14 80.077 113.669 80.1426L124.982 81.5672C125.51 81.6352 125.985 81.8717 126.302 82.2253C126.619 82.5789 126.753 83.021 126.675 83.4555C126.593 83.8894 126.305 84.279 125.874 84.5394C125.444 84.7999 124.906 84.9103 124.377 84.8466Z" fill="#8173FF"/>
<path d="M130.626 82.972H130.806L142.128 84.3967C142.289 84.4136 142.444 84.4568 142.584 84.5237C142.725 84.5906 142.848 84.68 142.946 84.7864C143.131 84.9982 143.21 85.2605 143.166 85.5189C143.12 85.7511 142.976 85.9625 142.759 86.1161C142.542 86.2697 142.267 86.3557 141.98 86.3589H141.792L130.479 84.9343C130.317 84.9196 130.161 84.8774 130.02 84.8103C129.879 84.7432 129.757 84.6527 129.661 84.5445C129.529 84.3982 129.449 84.2245 129.43 84.043C129.412 83.8614 129.455 83.6791 129.555 83.5166C129.655 83.354 129.808 83.2176 129.998 83.1226C130.187 83.0276 130.405 82.9778 130.626 82.9787M130.626 82.3067C130.11 82.2958 129.609 82.4483 129.225 82.7328C128.842 83.0172 128.607 83.4118 128.568 83.8348C128.529 84.2579 128.69 84.677 129.017 85.0055C129.343 85.334 129.811 85.5467 130.324 85.5995L141.637 87.0242C141.74 87.0308 141.844 87.0308 141.948 87.0242C142.455 87.0219 142.943 86.8627 143.314 86.5782C143.686 86.2938 143.913 85.905 143.951 85.4891C143.989 85.0732 143.836 84.6608 143.52 84.3338C143.205 84.0069 142.752 83.7894 142.25 83.7247L130.929 82.3067C130.828 82.3001 130.727 82.3001 130.626 82.3067Z" fill="#8173FF"/>
<path d="M147.886 85.1429H148.058L159.371 86.5676C159.667 86.608 159.934 86.738 160.12 86.9321C160.305 87.1262 160.396 87.3703 160.373 87.6163C160.351 87.8623 160.217 88.0925 159.998 88.2616C159.779 88.4306 159.491 88.5263 159.191 88.5298H159.011L147.69 87.1052C147.529 87.0886 147.373 87.0456 147.233 86.9786C147.092 86.9117 146.969 86.8221 146.872 86.7154C146.779 86.611 146.713 86.4925 146.676 86.3667C146.639 86.241 146.634 86.1105 146.659 85.9829C146.704 85.752 146.847 85.5415 147.062 85.3889C147.278 85.2363 147.553 85.1515 147.837 85.1497M147.837 84.4777C147.321 84.4667 146.819 84.6193 146.436 84.9037C146.053 85.1881 145.818 85.5827 145.779 86.0058C145.74 86.4288 145.9 86.8479 146.227 87.1764C146.554 87.5049 147.022 87.7176 147.535 87.7705L158.856 89.1951C158.956 89.2017 159.058 89.2017 159.158 89.1951C159.666 89.1928 160.154 89.0336 160.525 88.7492C160.897 88.4647 161.124 88.0759 161.162 87.66C161.2 87.2441 161.046 86.8317 160.731 86.5048C160.416 86.1778 159.962 85.9603 159.461 85.8956L148.148 84.4777C148.045 84.471 147.941 84.471 147.837 84.4777Z" fill="#8173FF"/>
<path d="M324.141 108.468L324.28 107.742L323.625 107.614C323.61 107.494 323.574 107.377 323.519 107.265L324.026 106.902L323.503 106.311L322.922 106.6C322.809 106.525 322.685 106.462 322.554 106.411L322.595 105.86L321.711 105.753L321.556 106.291C321.413 106.303 321.273 106.33 321.139 106.371L320.689 105.955L319.969 106.391L320.321 106.862C320.23 106.956 320.156 107.06 320.1 107.171L319.429 107.131L319.29 107.856L319.944 107.991C319.959 108.109 319.995 108.224 320.051 108.333L319.544 108.696L320.075 109.288L320.648 108.999C320.762 109.072 320.886 109.135 321.016 109.187L320.975 109.738L321.858 109.845L322.014 109.315C322.159 109.296 322.301 109.267 322.439 109.227L322.881 109.644L323.601 109.207L323.249 108.737C323.338 108.644 323.412 108.542 323.47 108.434L324.141 108.468ZM321.629 108.643C321.426 108.617 321.237 108.542 321.086 108.428C320.935 108.313 320.828 108.165 320.78 108.001C320.731 107.837 320.743 107.665 320.813 107.506C320.884 107.348 321.01 107.21 321.176 107.11C321.342 107.011 321.54 106.954 321.745 106.947C321.95 106.939 322.154 106.982 322.329 107.07C322.505 107.158 322.645 107.287 322.731 107.44C322.818 107.593 322.847 107.763 322.816 107.93C322.795 108.041 322.747 108.147 322.676 108.243C322.605 108.339 322.512 108.422 322.402 108.488C322.292 108.554 322.167 108.602 322.034 108.628C321.902 108.655 321.764 108.66 321.629 108.643Z" fill="#8173FF"/>
<path opacity="0.2" d="M196.914 188.434L194.505 188.131L191.857 202.346L194.266 202.649L196.914 188.434Z" fill="#8173FF"/>
<path d="M196.517 190.57L194.107 190.267L192.861 196.956L195.271 197.259L196.517 190.57Z" fill="#8173FF"/>
<path opacity="0.2" d="M190.838 191.333L188.429 191.03L185.781 205.246L188.191 205.549L190.838 191.333Z" fill="#8173FF"/>
<path d="M187.709 194.775L186.462 201.471L188.871 201.774L190.119 195.078L187.709 194.775Z" fill="#8173FF"/>
<path opacity="0.2" d="M186.485 188.017L184.072 187.717L181.446 201.954L183.859 202.254L186.485 188.017Z" fill="#8173FF"/>
<path d="M184.921 193.278L182.511 192.975L181.264 199.67L183.673 199.973L184.921 193.278Z" fill="#8173FF"/>
<path opacity="0.2" d="M201.811 191.918L199.401 191.615L196.754 205.831L199.163 206.133L201.811 191.918Z" fill="#8173FF"/>
<path d="M201.422 194.054L199.012 193.751L197.765 200.447L200.175 200.75L201.422 194.054Z" fill="#8173FF"/>
<path opacity="0.2" d="M208.008 188.395L205.598 188.092L202.95 202.307L205.36 202.61L208.008 188.395Z" fill="#8173FF"/>
<path d="M207.708 189.998L205.299 189.695L204.051 196.391L206.461 196.694L207.708 189.998Z" fill="#8173FF"/>
<path opacity="0.2" d="M212.748 192.743L210.338 192.44L207.69 206.656L210.1 206.959L212.748 192.743Z" fill="#8173FF"/>
<path d="M212.643 193.281L210.233 192.979L208.986 199.674L211.395 199.977L212.643 193.281Z" fill="#8173FF"/>
<path opacity="0.2" d="M219.541 185.991L217.131 185.688L214.483 199.904L216.893 200.207L219.541 185.991Z" fill="#8173FF"/>
<path d="M219.451 186.53L217.041 186.228L215.795 192.917L218.205 193.22L219.451 186.53Z" fill="#8173FF"/>
<path opacity="0.2" d="M223.294 195.626L220.884 195.323L218.237 209.539L220.646 209.841L223.294 195.626Z" fill="#8173FF"/>
<path d="M222.897 197.77L220.487 197.467L219.24 204.163L221.649 204.466L222.897 197.77Z" fill="#8173FF"/>
<path opacity="0.2" d="M228.558 197.137L226.149 196.834L223.501 211.049L225.911 211.352L228.558 197.137Z" fill="#8173FF"/>
<path d="M227.56 202.494L225.151 202.191L223.903 208.887L226.313 209.19L227.56 202.494Z" fill="#8173FF"/>
<path opacity="0.2" d="M235.648 188.885L233.238 188.582L230.59 202.797L233 203.1L235.648 188.885Z" fill="#8173FF"/>
<path d="M234.543 194.782L232.133 194.479L230.888 201.169L233.297 201.472L234.543 194.782Z" fill="#8173FF"/>
<path opacity="0.2" d="M239.892 195.825L237.483 195.522L234.835 209.738L237.244 210.041L239.892 195.825Z" fill="#8173FF"/>
<path d="M239.389 198.507L236.979 198.204L235.733 204.893L238.143 205.196L239.389 198.507Z" fill="#8173FF"/>
<path opacity="0.2" d="M246 192.796L243.59 192.493L240.942 206.708L243.352 207.011L246 192.796Z" fill="#8173FF"/>
<path d="M246.27 194.978L243.857 194.678L242.62 201.384L245.033 201.684L246.27 194.978Z" fill="#8173FF"/>
<path opacity="0.2" d="M252.61 187.09L250.2 186.787L247.553 201.002L249.962 201.305L252.61 187.09Z" fill="#8173FF"/>
<path d="M252.602 187.096L250.192 186.793L248.945 193.489L251.354 193.792L252.602 187.096Z" fill="#8173FF"/>
<path opacity="0.2" d="M256.353 196.778L253.944 196.475L251.296 210.69L253.706 210.993L256.353 196.778Z" fill="#8173FF"/>
<path d="M256.046 198.388L253.636 198.085L252.389 204.781L254.798 205.084L256.046 198.388Z" fill="#8173FF"/>
<path opacity="0.2" d="M260.599 203.711L258.19 203.408L255.542 217.624L257.952 217.926L260.599 203.711Z" fill="#8173FF"/>
<path d="M260.3 205.315L257.89 205.012L256.643 211.708L259.053 212.01L260.3 205.315Z" fill="#8173FF"/>
<path opacity="0.2" d="M267.417 196.868L265.007 196.565L262.359 210.781L264.769 211.084L267.417 196.868Z" fill="#8173FF"/>
<path d="M266.426 202.213L264.017 201.91L262.77 208.606L265.179 208.909L266.426 202.213Z" fill="#8173FF"/>
<path opacity="0.2" d="M274.336 189.514L271.926 189.211L269.279 203.426L271.688 203.729L274.336 189.514Z" fill="#8173FF"/>
<path d="M273.134 195.936L270.724 195.633L269.477 202.329L271.887 202.632L273.134 195.936Z" fill="#8173FF"/>
<path opacity="0.2" d="M278.257 198.227L275.847 197.924L273.199 212.139L275.609 212.442L278.257 198.227Z" fill="#8173FF"/>
<path d="M278.592 200.377L276.179 200.076L274.942 206.782L277.355 207.083L278.592 200.377Z" fill="#8173FF"/>
<path opacity="0.2" d="M283.225 201.276L280.815 200.973L278.167 215.188L280.577 215.491L283.225 201.276Z" fill="#8173FF"/>
<path d="M282.137 207.166L279.727 206.863L278.48 213.559L280.889 213.862L282.137 207.166Z" fill="#8173FF"/>
<path opacity="0.2" d="M289.472 197.518L287.063 197.215L284.415 211.43L286.825 211.733L289.472 197.518Z" fill="#8173FF"/>
<path d="M289.472 197.525L287.062 197.222L285.815 203.917L288.225 204.22L289.472 197.525Z" fill="#8173FF"/>
<path opacity="0.2" d="M294.065 202.634L291.655 202.331L289.007 216.546L291.417 216.849L294.065 202.634Z" fill="#8173FF"/>
<path d="M293.862 203.704L291.452 203.401L290.205 210.097L292.615 210.4L293.862 203.704Z" fill="#8173FF"/>
<path opacity="0.2" d="M299.846 201.397L297.436 201.094L294.788 215.309L297.198 215.612L299.846 201.397Z" fill="#8173FF"/>
<path d="M299.741 201.935L297.331 201.632L296.084 208.328L298.493 208.631L299.741 201.935Z" fill="#8173FF"/>
<path opacity="0.2" d="M304.913 203.906L302.503 203.604L299.855 217.819L302.265 218.122L304.913 203.906Z" fill="#8173FF"/>
<path d="M304.409 210.865L301.996 210.564L300.759 217.27L303.172 217.571L304.409 210.865Z" fill="#8173FF"/>
<path d="M217.424 223.65L172.046 217.945L171.831 219.101L217.209 224.806L217.424 223.65Z" fill="#999999" stroke="#263238" stroke-linecap="round" stroke-linejoin="round"/>
<path opacity="0.2" d="M246.267 142.384C246.267 142.384 240.116 145.186 244.034 152.78C247.952 160.373 271.781 172.859 271.298 179.203C271.298 179.203 246.832 166.677 240.034 173.907C240.034 173.907 258.513 188.631 260.435 199.705C262.357 210.78 268.615 215.692 283.077 222.009C297.539 228.326 328.983 261.657 328.983 261.657L324.28 205.679L278.472 163.209L255.83 152.605L246.267 142.384Z" fill="black" fill-opacity="0.7"/>
<path d="M370.554 242.189L330.227 263.949H330.161C330.124 263.947 330.088 263.937 330.057 263.919C330.027 263.901 330.003 263.876 329.989 263.848C329.809 263.458 311.993 224.341 307.699 221.29C305.281 219.495 303.519 217.182 302.611 214.611C302.611 214.611 302.611 214.577 302.611 214.557C302.456 214.127 302.382 213.844 302.366 213.771C299.993 209.807 296.354 206.449 291.838 204.053C288.819 202.551 285.63 201.29 282.316 200.29C277.245 198.603 272.026 196.863 268.337 193.644C267.705 193.094 267.127 192.503 266.611 191.877C260.746 184.821 251.69 177.032 248.672 175.433C245.654 173.834 240.099 174.049 240.05 174.049C240.005 174.053 239.96 174.042 239.923 174.02C239.887 173.997 239.862 173.964 239.854 173.928C239.756 173.313 239.824 172.687 240.053 172.096C240.282 171.505 240.666 170.962 241.179 170.507C241.95 169.767 242.907 169.173 243.985 168.767C245.063 168.361 246.235 168.152 247.42 168.155C252.083 168.155 258.504 170.171 261.744 172.705C264.983 175.238 272.476 177.099 273.335 177.315C274.554 176.723 277.425 177.987 278.48 178.531C277.228 174.868 277.736 173.457 277.932 173.101C275.249 170.245 261.277 161.791 253.858 157.551C251.813 156.375 250.275 155.535 249.605 155.206C246.144 153.532 243.281 148.298 243.838 144.642C243.865 144.145 244.025 143.66 244.308 143.221C244.591 142.782 244.989 142.399 245.474 142.102C246.17 141.743 246.985 141.571 247.805 141.611C248.138 141.618 248.47 141.652 248.795 141.712C248.828 141.724 248.858 141.739 248.885 141.759C248.95 141.833 255.895 148.6 258.3 149.662C259.478 150.179 265.744 152.78 271.699 155.199L274.382 156.288C274.365 154.157 274.502 152.028 274.791 149.91C275.02 149.077 276.639 147.894 278.48 147.222C279.339 146.9 280.934 146.436 282.104 146.947C282.554 147.155 283.617 147.693 285.089 148.445L287.543 149.695C288.065 149.036 288.705 148.445 289.441 147.941C290.055 147.646 293.449 147.128 294.66 147.478C295.715 147.794 299.102 149.561 302.685 151.429L304.231 152.229C304.419 151.94 304.86 151.335 305.278 151.201C307.046 150.664 308.971 150.58 310.799 150.959C312.01 151.322 316.165 153.842 320.19 156.281C322.398 157.625 324.517 158.908 325.916 159.681C325.963 159.691 326.004 159.715 326.03 159.748C326.431 159.97 326.766 160.145 327.02 160.266C329.981 161.657 337.261 193.026 337.335 193.342C337.809 195.445 339.544 197.616 341.376 199.914C343.449 202.307 345.145 204.906 346.423 207.649C348.754 213.246 354.063 221.438 361.842 231.451C362.546 232.347 363.271 233.268 364.018 234.213C366.12 236.827 368.362 239.555 370.554 242.189Z" fill="white"/>
<path opacity="0.4" d="M280.689 182.113C279.126 183.127 267.789 182.166 266.398 185.298C265.58 187.146 266.185 189.941 268.312 193.631C267.68 193.081 267.103 192.49 266.586 191.863C260.721 184.807 251.666 177.019 248.647 175.42C245.629 173.82 240.099 174.049 240.05 174.049C240.005 174.053 239.96 174.042 239.923 174.02C239.887 173.997 239.862 173.964 239.854 173.928C239.756 173.313 239.824 172.687 240.053 172.096C240.282 171.505 240.666 170.962 241.179 170.507C241.95 169.767 242.907 169.173 243.985 168.767C245.063 168.361 246.235 168.152 247.42 168.155C252.083 168.155 258.504 170.171 261.744 172.705C264.983 175.238 272.476 177.099 273.335 177.315C274.554 176.723 277.425 177.987 278.48 178.531C277.228 174.868 277.736 173.457 277.932 173.101C275.249 170.245 261.277 161.791 253.858 157.551C251.813 156.375 250.275 155.535 249.605 155.206C246.144 153.532 243.281 148.298 243.838 144.642C243.865 144.145 244.025 143.66 244.308 143.221C244.591 142.782 244.989 142.399 245.474 142.102C246.17 141.743 246.985 141.571 247.805 141.611C247.242 141.792 246.722 142.051 246.267 142.377C243.993 143.97 249.416 152.377 252.468 154.702C255.658 157.128 270.005 163.149 275.159 166.737C277.989 168.706 281.703 171.69 281.703 171.69C279.437 174.862 282.21 181.118 280.689 182.113Z" fill="#8173FF"/>
<path d="M333.368 130.724C333.368 130.664 333.368 130.65 333.368 130.677C333.373 130.684 333.376 130.692 333.376 130.701C333.376 130.709 333.373 130.717 333.368 130.724Z" fill="#8173FF"/>
<path opacity="0.4" d="M361.842 231.416C355.765 226.665 346.718 219.267 345.024 216.021C342.439 211.048 340.713 206.458 337.499 203.112C334.284 199.765 327.764 164.102 325.891 164.001C324.018 163.901 328.247 178.113 328.468 178.839C328.288 178.389 325.949 172.334 323.707 165.433C321.384 158.263 319.036 157.873 319.036 157.873C315.92 158.383 315.903 160.205 314.308 160.178C312.713 160.151 307.241 156.959 307.241 156.959C301.932 157.591 282.014 147.054 282.014 147.054C277.482 147.558 276.419 150.81 280.288 153.861C284.157 156.912 289.94 160.608 289.94 160.608C286.21 162.1 272.517 155.79 272.517 155.79L271.699 155.185L274.382 156.273C274.365 154.143 274.502 152.013 274.791 149.896C275.02 149.063 276.639 147.88 278.48 147.208C279.339 146.886 280.934 146.422 282.104 146.933C282.554 147.141 283.617 147.679 285.089 148.431L287.543 149.681C288.065 149.022 288.705 148.43 289.441 147.927C290.055 147.631 293.449 147.114 294.66 147.463C295.715 147.779 299.102 149.547 302.685 151.415L304.231 152.215C304.419 151.926 304.86 151.321 305.278 151.186C307.046 150.65 308.971 150.565 310.799 150.944C312.01 151.307 316.165 153.827 320.19 156.267C322.398 157.611 324.517 158.894 325.916 159.667C325.963 159.677 326.004 159.701 326.03 159.734C326.431 159.956 326.766 160.131 327.02 160.252C329.981 161.643 337.261 193.012 337.335 193.327C337.81 195.431 339.544 197.601 341.376 199.9C343.451 202.296 345.147 204.9 346.423 207.648C348.754 213.212 354.063 221.404 361.842 231.416Z" fill="#8173FF"/>
<path d="M330.161 263.814C330.161 263.814 312.165 224.3 307.822 221.195C305.148 219.21 303.295 216.588 302.521 213.696C300.132 209.693 296.454 206.305 291.887 203.898C284.124 199.698 272.386 198.609 266.709 191.802C261.032 184.995 251.936 177.018 248.713 175.311C245.49 173.604 240.001 173.913 240.001 173.913C239.437 171.266 243.028 168.316 247.363 168.316C251.699 168.316 258.153 170.177 261.564 172.825C264.975 175.473 273.302 177.489 273.302 177.489C274.627 176.709 278.725 178.873 278.725 178.873C277.089 174.323 278.079 173.094 278.079 173.094C274.864 169.519 252.852 156.65 249.637 155.091C246.423 153.532 243.388 148.404 243.952 144.668C243.966 144.204 244.111 143.749 244.375 143.338C244.639 142.928 245.015 142.574 245.474 142.303C245.933 142.032 246.462 141.852 247.02 141.777C247.577 141.703 248.149 141.735 248.688 141.873C248.688 141.873 255.69 148.713 258.153 149.802C260.615 150.891 279.928 158.827 282.766 159.754C283.554 160.031 284.412 160.147 285.266 160.093C286.121 160.039 286.947 159.817 287.674 159.445" stroke="#263238" stroke-linecap="round" stroke-linejoin="round"/>
<path d="M274.562 156.529C274.562 156.529 274.562 151.355 274.971 149.95C275.38 148.546 279.936 146.127 282.014 147.054C284.091 147.981 299.437 156.274 303.437 156.643" stroke="#263238" stroke-linecap="round" stroke-linejoin="round"/>
<path d="M287.601 149.856C288.144 149.174 288.799 148.557 289.547 148.022C290.112 147.746 293.474 147.236 294.611 147.572C296.885 148.244 310.284 155.837 312.55 156.308" stroke="#263238" stroke-linecap="round" stroke-linejoin="round"/>
<path d="M304.296 152.424C304.296 152.424 304.877 151.469 305.343 151.315C307.069 150.789 308.949 150.707 310.734 151.08C312.82 151.704 324.272 159.144 326.922 160.373C329.572 161.603 336.206 189.148 337.147 193.348C338.088 197.548 343.781 201.748 346.235 207.662C348.689 213.576 354.57 222.594 363.846 234.26C365.482 236.276 367.184 238.406 368.893 240.462" stroke="#263238" stroke-linecap="round" stroke-linejoin="round"/>
<path d="M286.235 167.489C286.235 167.489 287.053 164.337 289.359 162.94C291.666 161.542 294.758 163.76 297.024 163.988" stroke="#263238" stroke-linecap="round" stroke-linejoin="round"/>
<path d="M301.711 162.476C301.711 162.476 302.987 158.854 305.261 158.041C307.535 157.228 311.036 159.674 312.55 159.788" stroke="#263238" stroke-linecap="round" stroke-linejoin="round"/>
<path d="M316.623 159.203C316.623 159.203 318.325 157.859 319.036 157.859C319.748 157.859 322.726 160.42 323.372 160.594C324.018 160.769 324.787 159.808 325.891 159.795" stroke="#263238" stroke-linecap="round" stroke-linejoin="round"/>
<path d="M311.445 155.904C312.689 155.828 313.93 156.08 314.987 156.623" stroke="#263238" stroke-linecap="round" stroke-linejoin="round"/>
<path d="M278.12 173.087C278.12 173.087 276.991 170.695 277.556 169.472" stroke="#263238" stroke-linecap="round" stroke-linejoin="round"/>
<path d="M280.337 155.534C280.337 155.534 281.687 156.831 281.76 157.873C281.834 158.914 285.032 160.178 285.032 160.178" stroke="#263238" stroke-linecap="round" stroke-linejoin="round"/>
<path d="M301.989 156.328C301.989 156.328 303.846 155.784 304.836 156.328" stroke="#263238" stroke-linecap="round" stroke-linejoin="round"/>
<path d="M278.12 176.239C278.057 175.47 278.224 174.701 278.608 173.998C278.992 173.295 279.58 172.68 280.32 172.207" stroke="#263238" stroke-linecap="round" stroke-linejoin="round"/>
<path d="M278.783 178.866C278.783 178.866 276.672 180.358 276.672 181.292" stroke="#263238" stroke-linecap="round" stroke-linejoin="round"/>
<path d="M269.065 176.239C271.568 177.005 273.646 180.204 275.159 180.748" stroke="#263238" stroke-linecap="round" stroke-linejoin="round"/>
<path d="M299.388 166.052C300.901 167.839 304.296 180.836 307.715 184.948" stroke="#263238" stroke-linecap="round" stroke-linejoin="round"/>
<path d="M312.083 162.382C312.37 162.536 314.357 167.59 314.357 167.59" stroke="#263238" stroke-linecap="round" stroke-linejoin="round"/>
<path d="M337.499 194.403C337.997 196.989 338.904 199.51 340.198 201.903" stroke="#263238" stroke-linecap="round" stroke-linejoin="round"/>
<path d="M302.775 214.576C302.521 213.723 301.425 208.125 300.075 206.257" stroke="#263238" stroke-linecap="round" stroke-linejoin="round"/>
<path opacity="0.2" d="M73.53 301.923C73.53 301.923 100.148 272.523 120.221 267.14C140.295 261.758 141.285 254.453 140.467 240.825C139.649 227.197 140.254 213.461 134.741 211.821C129.228 210.182 141.35 192.387 135.559 185.338L97.5792 234.354L73.53 301.923Z" fill="black" fill-opacity="0.7"/>
<path d="M67.076 310.114L66.6752 310.007L67.2478 310.269L67.076 310.114ZM131.78 219.925C128.508 218.669 122.013 212.775 121.203 212.036C125.293 206.378 129.334 200.921 130.733 199.611C133.637 196.923 137.179 189.081 135.739 185.29C134.422 181.809 130.111 182.367 129.522 182.461H129.457C129.435 182.464 129.413 182.471 129.395 182.481C129.377 182.492 129.361 182.506 129.35 182.522C129.26 182.649 120.483 194.806 117.759 197.716C116.459 199.1 113.465 202.252 110.397 205.41L109.489 205.296C107.587 205.053 105.646 205.098 103.763 205.43L103.575 205.484C102.601 205.829 101.663 206.238 100.769 206.707L100.123 206.485C98.8308 206.042 96.1559 205.188 94.888 205.141C93.342 205.074 87.8941 207.157 84.6385 208.837C82.3941 208.277 80.0549 208.016 77.71 208.065C75.2151 208.152 70.1272 209.852 66.0372 211.216C64.2212 211.821 62.6506 212.345 61.7345 212.56L60.9165 212.762C58.4625 213.36 57.1373 213.696 55.4359 216.491C53.669 219.394 51.7631 230.22 50.8469 235.422L50.7242 236.127C50.3725 238.143 50.4297 241.678 50.487 245.448C50.577 250.689 50.6669 256.106 49.7181 258.216C48.4363 260.874 46.7427 263.386 44.6792 265.689C44.4092 266.004 44.1638 266.3 43.9348 266.582C42.6577 268.22 41.638 269.983 40.9 271.831C40.2129 273.322 39.354 274.962 38.5196 276.461C36.9818 279.236 35.5503 281.528 35.5503 281.528C35.5503 281.528 64.5484 307.809 67.076 310.114C67.2122 310.157 67.3515 310.193 67.4932 310.222C67.5914 310.088 72.9411 302.575 78.6098 295.162C83.5178 288.765 88.614 282.441 90.798 280.99C93.793 278.879 95.971 276.095 97.0639 272.98C98.2418 269.868 105.759 266.031 113.031 262.322C121.072 258.223 129.391 253.982 129.669 250.474C129.825 248.66 130.332 245.656 130.921 242.169C132.516 232.72 134.496 220.953 131.78 219.925ZM118.005 235.032L114.43 237.888C113.923 235.536 110.446 232.411 109.898 231.934C110.173 230.803 110.351 229.658 110.43 228.507C110.561 227.196 110.7 225.819 111.093 225.597C111.485 225.375 113.293 222.909 116.238 218.877C116.483 221.72 119.51 224.851 119.919 225.301L118.005 235.032Z" fill="white"/>
<path opacity="0.4" d="M75.5587 226.302C74.5035 234.044 65.2682 253.25 65.2682 253.25L63.6322 233.903C63.6322 233.903 56.442 260.158 54.4706 261.105C52.4993 262.053 49.0391 267.073 47.1086 271.058C45.808 273.746 41.3826 275.573 38.5933 276.494C39.4113 274.995 40.2865 273.356 40.9736 271.864C41.7116 270.016 42.7313 268.253 44.0084 266.616C44.2375 266.333 44.4829 266.038 44.7528 265.722C46.8163 263.419 48.5099 260.908 49.7917 258.249C50.7406 256.126 50.6097 250.709 50.5606 245.481C50.5033 241.711 50.4461 238.15 50.7978 236.161L50.9205 235.455C51.8367 230.254 53.7426 219.428 55.5095 216.525C57.2109 213.729 58.5525 213.393 60.9901 212.795L61.8081 212.594C62.7243 212.358 64.2621 211.834 66.1108 211.25C70.2008 209.906 75.2887 208.185 77.7836 208.098C80.1158 208.058 82.4408 208.323 84.6712 208.884C87.9432 207.197 93.3747 205.121 94.9207 205.188C96.1886 205.235 98.8635 206.089 100.156 206.532C94.7244 208.83 85.5874 214.368 85.5874 214.368C75.256 216.209 75.5587 226.302 75.5587 226.302Z" fill="#8173FF"/>
<path opacity="0.4" d="M93.8655 216.021C96.5398 214.5 99.3113 213.098 102.168 211.821C104.819 210.799 105.669 206.727 103.804 205.578C103.735 205.535 103.653 205.508 103.567 205.497L103.755 205.444C105.638 205.111 107.579 205.066 109.481 205.309C106.054 209.536 103.371 212.775 102.659 213.474C100.303 215.826 93.8655 216.021 93.8655 216.021Z" fill="#8173FF"/>
<path opacity="0.4" d="M107.387 242.545L108.639 242.988C107.878 245.482 107.387 242.545 107.387 242.545Z" fill="#8173FF"/>
<path opacity="0.4" d="M131.78 219.925C128.508 218.669 122.013 212.775 121.203 212.036C125.293 206.378 129.334 200.921 130.733 199.611C133.637 196.923 137.179 189.081 135.739 185.29C134.422 181.809 130.111 182.367 129.522 182.461V182.609C129.522 182.609 134.185 183.086 134.177 188.624C134.168 194.161 122.062 205.135 122.062 205.135C122.062 205.135 109.612 224.32 108.794 224.031C107.976 223.742 106.152 236.853 106.152 236.853C106.152 236.853 109.62 239.279 108.794 242.545C108.75 242.706 108.709 242.854 108.671 242.988L114.005 244.877C114.005 244.877 119.354 241.792 122.07 246.328C124.786 250.864 95.9596 267.073 93.6937 269.472C93.6937 269.472 93.3747 278.51 89.1702 279.841C86.4462 280.701 81.6446 289.249 78.6098 295.169C83.5178 288.772 88.6139 282.448 90.798 280.997C93.7929 278.886 95.971 276.101 97.0639 272.986C98.2418 269.875 105.759 266.038 113.031 262.329C121.072 258.229 129.391 253.989 129.669 250.481C129.825 248.667 130.332 245.663 130.921 242.175C132.516 232.72 134.496 220.953 131.78 219.925ZM118.005 235.032L114.43 237.888C113.923 235.536 110.446 232.411 109.898 231.934C110.173 230.803 110.351 229.658 110.43 228.507C110.561 227.196 110.7 225.819 111.093 225.597C111.485 225.375 113.293 222.909 116.238 218.877C116.483 221.72 119.51 224.851 119.919 225.301L118.005 235.032Z" fill="#8173FF"/>
<path d="M96.9003 216.196C99.1293 215.803 101.155 214.852 102.7 213.474C105.154 211.21 115.133 200.767 117.898 197.817C120.663 194.867 129.498 182.609 129.498 182.609C129.498 182.609 134.193 181.702 135.575 185.338C136.958 188.973 133.645 196.681 130.602 199.517C127.559 202.353 112.091 224.824 110.97 225.503C109.849 226.182 110.7 232.546 108.516 233.903" stroke="#263238" stroke-linecap="round" stroke-linejoin="round"/>
<path d="M109.702 231.995C109.702 231.995 114.029 235.718 114.307 238.211L118.168 235.106L120.107 225.275C120.107 225.275 116.287 221.498 116.401 218.394" stroke="#263238" stroke-linecap="round" stroke-linejoin="round"/>
<path d="M120.99 212.057C120.99 212.057 128.115 218.696 131.706 220.06C135.297 221.424 130.07 243.889 129.498 250.468C128.925 257.047 99.387 266.341 96.9003 272.933C95.8232 276.025 93.6609 278.788 90.6835 280.876C85.89 284.068 67.3378 310.155 67.3378 310.155" stroke="#263238" stroke-linecap="round" stroke-linejoin="round"/>
<path d="M110.504 205.579C110.504 205.579 106.291 204.94 103.804 205.579C101.317 206.217 90.798 212.352 88.344 213.475C85.89 214.597 82.2662 214.819 81.4401 216.196" stroke="#263238" stroke-linecap="round" stroke-linejoin="round"/>
<path d="M100.778 206.882C100.778 206.882 96.524 205.363 94.888 205.296C93.252 205.229 86.6017 207.803 83.5669 209.617C81.2335 211.023 78.6128 212.074 75.8286 212.722" stroke="#263238" stroke-linecap="round" stroke-linejoin="round"/>
<path d="M84.6463 208.992C82.4159 208.419 80.0868 208.149 77.7506 208.192C74.1514 208.32 64.7608 211.948 61.816 212.708C58.8712 213.467 57.4887 213.534 55.6482 216.565C53.8077 219.596 51.7791 231.463 50.9529 236.154C50.1267 240.844 51.5991 254.573 49.9386 258.283C48.2781 261.992 45.7177 264.768 44.1717 266.696C41.0224 270.54 41.3741 273.416 35.64 281.561" stroke="#263238" stroke-linecap="round" stroke-linejoin="round"/>
<path d="M77.98 217.217C74.3889 219.831 75.0515 224.824 75.526 226.302C76.0004 227.781 73.8 233.694 73.072 236.853" stroke="#263238" stroke-linecap="round" stroke-linejoin="round"/>
<path d="M100.778 219.744C94.2336 219.858 92.205 223.487 91.7796 225.873" stroke="#263238" stroke-linecap="round" stroke-linejoin="round"/>
<path d="M73.1456 214.368C71.2069 214.254 66.2335 216.754 65.2682 220.839" stroke="#263238" stroke-linecap="round" stroke-linejoin="round"/>
<path d="M120.107 225.274C120.107 225.274 121.072 223.01 122.037 222.781" stroke="#263238" stroke-linecap="round" stroke-linejoin="round"/>
<path d="M118.168 235.105C117.692 236.437 117.101 237.74 116.401 239.003C115.583 240.347 116.401 242.491 116.401 242.491" stroke="#263238" stroke-linecap="round" stroke-linejoin="round"/>
<path d="M114.307 238.211C114.168 240.482 111.125 242.915 110.504 242.492" stroke="#263238" stroke-linecap="round" stroke-linejoin="round"/>
<path d="M88.295 234.354C88.1968 236.853 82.6753 255.118 82.6753 255.118" stroke="#263238" stroke-linecap="round" stroke-linejoin="round"/>
</svg>
